<svg xmlns="http://www.w3.org/2000/svg" viewBox="0 0 594 608"><defs><style>.cls-1{fill:#6c8c58;}.cls-2{fill:#fefefe;}.cls-3{fill:#fa5390;}.cls-4{fill:#fd6503;}.cls-5{fill:#fc7005;}.cls-6{fill:#ed4d8c;}.cls-7{fill:#a3ca2c;}.cls-8{fill:#a4cb2d;}.cls-9{fill:#fd5f03;}.cls-10{fill:#7ac040;}.cls-11{fill:#fd7a05;}.cls-12{fill:#f14e8d;}.cls-13{fill:#fafbfb;}.cls-14{fill:#f9a618;}.cls-15{fill:#96c832;}.cls-16{fill:#fc6003;}.cls-17{fill:#78bf41;}.cls-18{fill:#13b2e7;}.cls-19{fill:#fbb712;}.cls-20{fill:#88c439;}.cls-21{fill:#fc7705;}.cls-22{fill:#a1ca2d;}.cls-23{fill:#6c8d58;}.cls-24{fill:#dd4086;}.cls-25{fill:#f9fafa;}.cls-26{fill:#7dc13f;}.cls-27{fill:#fbb811;}.cls-28{fill:#fbb711;}.cls-29{fill:#fa7707;}.cls-30{fill:#f9a61a;}.cls-31{fill:#1879bf;}.cls-32{fill:#187dc2;}.cls-33{fill:#fa5d06;}.cls-34{fill:#159fd9;}.cls-35{fill:#1f2d20;}.cls-36{fill:#7bc13f;}.cls-37{fill:#14b3e9;}.cls-38{fill:#243425;}.cls-39{fill:#1f2d1f;}.cls-40{fill:#f8a319;}.cls-41{fill:#196db7;}.cls-42{fill:#1698d4;}.cls-43{fill:#177ec3;}.cls-44{fill:#187ac0;}.cls-45{fill:#92c634;}.cls-46{fill:#14b0e6;}.cls-47{fill:#a7cb2b;}.cls-48{fill:#202f21;}.cls-49{fill:#d3d3d4;}.cls-50{fill:#d2d2d3;}.cls-51{fill:#14a2dc;}.cls-52{fill:#d3d3d5;}.cls-53{fill:#d2d1d3;}.cls-54{fill:#f9fbfa;}.cls-55{fill:#1794d2;}.cls-56{fill:#293b29;}.cls-57{fill:#243424;}.cls-58{fill:#dae8e0;}.cls-59{fill:#1d2c21;}.cls-60{fill:#2d3e2a;}.cls-61{fill:#1b281d;}.cls-62{fill:#212e21;}.cls-63{fill:#19231b;}.cls-64{fill:#1d2b1e;}.cls-65{fill:#1b281e;}.cls-66{fill:#070806;}.cls-67{fill:#212f21;}.cls-68{fill:#1f2d22;}.cls-69{fill:#213124;}.cls-70{fill:#223021;}.cls-71{fill:#19251b;}.cls-72{fill:#f2f6f5;}.cls-73{fill:#293929;}.cls-74{fill:#090a08;}.cls-75{fill:#233323;}.cls-76{fill:#2c3d2a;}.cls-77{fill:#202f22;}.cls-78{fill:#293a28;}.cls-79{fill:#293a29;}.cls-80{fill:#18241a;}.cls-81{fill:#0c100b;}.cls-82{fill:#050504;}.cls-83{fill:#070907;}.cls-84{fill:#223224;}.cls-85{fill:#060705;}.cls-86{fill:#060706;}.cls-87{fill:#070805;}.cls-88{fill:#2a3a28;}.cls-89{fill:#1c2b1f;}.cls-90{fill:#060907;}.cls-91{fill:#080b08;}.cls-92{fill:#0a0c09;}.cls-93{fill:#1a281e;}.cls-94{fill:#040504;}.cls-95{fill:#080a07;}.cls-96{fill:#2a3c29;}.cls-97{fill:#070705;}.cls-98{fill:#070906;}.cls-99{fill:#050604;}.cls-100{fill:#152118;}.cls-101{fill:#243225;}.cls-102{fill:#283827;}.cls-103{fill:#203125;}.cls-104{fill:#b7c3bc;}.cls-105{fill:#1992cb;}.cls-106{fill:#b9c5be;}.cls-107{fill:#070b09;}.cls-108{fill:#263726;}.cls-109{fill:#bdc9c7;}.cls-110{fill:#b9c6be;}.cls-111{fill:#ecf3ee;}.cls-112{fill:#c0cdca;}.cls-113{fill:#283727;}.cls-114{fill:#31432d;}.cls-115{fill:#273827;}.cls-116{fill:#203124;}.cls-117{fill:#2b3e29;}.cls-118{fill:#243525;}.cls-119{fill:#17271f;}.cls-120{fill:#243626;}.cls-121{fill:#203023;}.cls-122{fill:#203022;}.cls-123{fill:#2b3925;}.cls-124{fill:#233929;}.cls-125{fill:#223524;}.cls-126{fill:#31432e;}.cls-127{fill:#253525;}.cls-128{fill:#bac6c0;}.cls-129{fill:#6d8d58;}.cls-130{fill:#31442e;}.cls-131{fill:#31432c;}.cls-132{fill:#364a30;}.cls-133{fill:#faf8f3;}.cls-134{fill:#6c8d59;}.cls-135{fill:#f9f7f2;}.cls-136{fill:#faead9;}.cls-137{fill:#f9fdfd;}.cls-138{fill:#36442e;}.cls-139{fill:#fefdfe;}.cls-140{fill:#fdfdfd;}.cls-141{fill:#ed4b8b;}.cls-142{fill:#e8488a;}.cls-143{fill:#88c43a;}.cls-144{fill:#f7f9ef;}.cls-145{fill:#8ec537;}.cls-146{fill:#fbfcf7;}.cls-147{fill:#f9fbf5;}.cls-148{fill:#f37c34;}.cls-149{fill:#fcfdfb;}.cls-150{fill:#daeec9;}.cls-151{fill:#a3ce62;}.cls-152{fill:#243325;}.cls-153{fill:#faf6f8;}.cls-154{fill:#f5cadd;}.cls-155{fill:#5c8249;}.cls-156{fill:#547b3f;}.cls-157{fill:#a2b99b;}.cls-158{fill:#537a3e;}.cls-159{fill:#fcfcf8;}.cls-160{fill:#f9ebdd;}.cls-161{fill:#f6f9f1;}.cls-162{fill:#c4e09e;}.cls-163{fill:#f2f8f9;}.cls-164{fill:#f0f7e6;}.cls-165{fill:#2f3f2a;}.cls-166{fill:#6b8d5a;}.cls-167{fill:#81ab8b;}.cls-168{fill:#faf6e7;}.cls-169{fill:#faebca;}.cls-170{fill:#fafbf9;}.cls-171{fill:#f9f4e3;}.cls-172{fill:#f8d899;}.cls-173{fill:#f2f7f8;}.cls-174{fill:#9bd0e6;}.cls-175{fill:#afd2e5;}.cls-176{fill:#f7fbf8;}.cls-177{fill:#e5f1f6;}.cls-178{fill:#12b1e6;}.cls-179{fill:#1690cf;}.cls-180{fill:#6d8c58;}.cls-181{fill:#6e915b;}.cls-182{fill:#ecf4de;}.cls-183{fill:#c1dfa2;}.cls-184{fill:#e0f2f7;}.cls-185{fill:#688956;}.cls-186{fill:#d5ebf4;}.cls-187{fill:#e6f3f7;}.cls-188{fill:#76bee0;}.cls-189{fill:#e1edbe;}.cls-190{fill:#6c8d5a;}.cls-191{fill:#6d8e5a;}.cls-192{fill:#6e8e5b;}.cls-193{fill:#6d8d5a;}.cls-194{fill:#6b8c57;}.cls-195{fill:#b0d0c5;}.cls-196{fill:#759667;}.cls-197{fill:#e14287;}.cls-198{fill:#eef4f0;}.cls-199{fill:#698a57;}.cls-200{fill:#030303;}.cls-201{fill:#6d8e59;}.cls-202{fill:#658856;}.cls-203{fill:#6a8c58;}.cls-204{fill:#6d8f59;}.cls-205{fill:#6a8b57;}.cls-206{fill:#678957;}.cls-207{fill:#6c8f5b;}.cls-208{fill:#698c58;}.cls-209{fill:#6c8e5a;}.cls-210{fill:#6c9365;}.cls-211{fill:#6d8f5c;}.cls-212{fill:#6f9569;}.cls-213{fill:#6a8c57;}.cls-214{fill:#1978be;}.cls-215{fill:#1888ca;}.cls-216{fill:#d4d2d3;}.cls-217{fill:#d2d2d2;}.cls-218{fill:#169ad6;}.cls-219{fill:#090c09;}.cls-220{fill:#2f412d;}.cls-221{fill:#090b08;}.cls-222{fill:#2b3d2a;}.cls-223{fill:#bbc6c0;}.cls-224{fill:#263829;}.cls-225{fill:#afbfb2;}.cls-226{fill:#121511;}.cls-227{fill:#fa8327;}.cls-228{fill:#fc6c12;}.cls-229{fill:#bcc0bc;}.cls-230{fill:#b6c5bd;}.cls-231{fill:#aabeb1;}.cls-232{fill:#b4c2b8;}.cls-233{fill:#e74588;}.cls-234{fill:#f37ba9;}.cls-235{fill:#fa6b09;}.cls-236{fill:#fbd5b8;}.cls-237{fill:#1aabe2;}.cls-238{fill:#1f9cd6;}.cls-239{fill:#95c742;}.cls-240{fill:#96c842;}.cls-241{fill:#84c33f;}.cls-242{fill:#93c63b;}.cls-243{fill:#9bc930;}.cls-244{fill:#9bc932;}.cls-245{fill:#fae6b6;}.cls-246{fill:#f9b73e;}.cls-247{fill:#f8ac20;}.cls-248{fill:#fb6d09;}.cls-249{fill:#f7a610;}.cls-250{fill:#f5faf9;}.cls-251{fill:#f9fbfb;}.cls-252{fill:#9ccb4e;}.cls-253{fill:#c6df91;}.cls-254{fill:#99ce57;}.cls-255{fill:#a3cb3a;}.cls-256{fill:#8bc54e;}.cls-257{fill:#9ac733;}.cls-258{fill:#39a3d8;}.cls-259{fill:#6d8e5c;}.cls-260{fill:#6f905e;}.cls-261{fill:#faf9f4;}.cls-262{fill:#f8ece0;}.cls-263{fill:#6b9364;}.cls-264{fill:#698c56;}.cls-265{fill:#6a8a55;}.cls-266{fill:#f6f9ef;}.cls-267{fill:#f9ebc9;}.cls-268{fill:#1d9fd8;}.cls-269{fill:#f87e29;}</style></defs><g id="Layer_2" data-name="Layer 2"><g id="Layer_1-2" data-name="Layer 1"><path class="cls-1" d="M.19,606.1Q.19,306.69,0,7.26C0,.82,1.63,0,7.56,0Q297,.29,586.44,0c5.93,0,7.57.82,7.56,7.26q-.35,299.42-.19,598.84c-2.63,1.43-5.49.73-8.23.73q-288.59.06-577.16,0C5.68,606.83,2.82,607.53.19,606.1Z"/><path class="cls-2" d="M.19,606.1H593.81c-1.37,3.15-4.12,1.43-6.1,1.43q-143.07.16-286.13.1-147.64,0-295.29-.1C4.31,607.53,1.56,609.25.19,606.1Z"/><path class="cls-1" d="M436.09,424.63l5.12,1.74c-1.21,3.3-4.17,3.57-6.89,3.44-8.78-.42-15.69,2.65-20.62,10a5.09,5.09,0,0,1-3.87,2.1c-13.92-3-26.16-10.32-39.32-15.3-12.21-4.63-24.4-9.53-36.22-15.18-1.62-.77-3.31-1.21-4.21-2.91l-.31-.37c-4.11-2.28-3.2-6.35-3.51-10s1-7.52-1.67-10.8c-1.46-2-3.13-3.92-2.14-6.69,7.19-6.54,16.27-10,24.73-14.31,16.19-8.2,32.73-15.69,48.58-24.6,5.89.8,8.58,6,12.17,9.55,13.26,12.94,28.69,17,46.62,13.9,4-.69,8.36-2.94,12.46.13l.27.28c4.11,4.75,2.61,7.42-3,9.21-9.67,3.08-19.7,4.83-29.31,8.07a68.75,68.75,0,0,0-13.78,2.5c-10,1.2-19.89,2.7-29.88,3.76-4.52.48-8.95,1.51-13.38-.5-1.94-.88-4-1-5.29,1.25a2.07,2.07,0,0,0,.68,2.71c1.48,1.2,3.21,1.75,4.9.61,9.57-6.51,21-3.81,31.4-6.2A51.73,51.73,0,0,1,420,385.43a11.78,11.78,0,0,1,9.36,6.88C432.53,402.89,432.28,414.18,436.09,424.63Z"/><path class="cls-3" d="M253.79,298c-.39-3-2.9-4-5-5.21-11.93-6.64-20-16.7-26-28.67-1.35-4.39,1.33-4.73,4.5-4.31,29.17,3.87,58.49,5.94,87.85,4.19,12.36-.73,24.68-1,37-1.19A30.27,30.27,0,0,0,363.92,260c2.42-1.08,4.76-1.77,7.21-.2a5.22,5.22,0,0,1,1.59,2.15c.58,1.73,0,3.33-.6,4.92-3.45,12.43-13.39,19.18-23.05,26.18-.48.56-1,1.09-1.52,1.6-6.42,6-14.67,8.1-22.68,10.74-.67.4-1.33.8-2,1.26-8.14,2.29-16.31,4.41-24.89,3.74a29.31,29.31,0,0,0-3.63,0c-13.18-.13-25.73-2.8-37.32-9.3C255.56,300.53,254,299.93,253.79,298Z"/><path class="cls-4" d="M349.5,77.6c3.43-8.48,6.36-17.19,11.41-24.94a1.61,1.61,0,0,1,1.34-1.94c18.27-17.07,39-21.26,62.27-11.71,1.29-.09,2.05.73,2.76,1.62C445.77,48.84,457.2,76.24,450,94.54c-8.69-1.41-15.76,4.1-23.79,5.53-6.37-7.33-9.69-16.49-14.74-24.61-2.3-3.71-1.47-7.86-1.56-11.85-.21-9.14-2.18-12.24-7.85-12.07-5.36.16-7.48,3.15-7.36,11.77.2,14.18-7.83,24.41-16,34.65-7.64.16-14.63-3.07-22-4.25-6.32-1-6.46-7.61-8.21-12.47A4.84,4.84,0,0,1,349.5,77.6Z"/><path class="cls-5" d="M111.21,199.7c-5.2-9.6-4.61-20-4.42-30.41a1.38,1.38,0,0,1,.84-2.07l.65.31c9.76-2.33,19-1.92,26.86,5.24.81,8.83,4.43,15.56,13.67,18,3.81,2.7,2.77,6,1.29,9.48-.44,1-1.7,2.26.22,3.07a4.47,4.47,0,0,0,3,0c1.89-.58,1.2-1.88.71-3-.9-2.11-1.47-4.32-2.2-6.48-1.24-3.35-4.71-3.64-7.27-5-7-3.84-9.55-9.16-8-16.83.78-3.88,2.8-6.66,6.4-7.73,4-1.2,6.59,1.64,8.83,4.54a18.47,18.47,0,0,1,1.58,2.59c2.59,4.85,4.88,2.89,7.12-.31,4.9-4,10.18-5.36,16.72-4.32,5.76.92,11.91,1.9,17.74-.59,5.5,2.92,8.1,9.23,6.51,16.6a41.2,41.2,0,0,1-5.89,13.91c-.35.75-.7,1.5-1,2.26-8.52,19.21-24.73,25.44-44.25,26.07a28.51,28.51,0,0,0-3.58,0c-10.09.81-17.9-4.57-25.2-10.19-4.3-3.32-10.58-5.73-10.64-12.83A6.6,6.6,0,0,1,111.21,199.7Z"/><path class="cls-6" d="M371.27,262.42c-.93-.28-2.26-1.1-2.72-.76-8,5.92-17.34,4.91-26.43,4.92-23.37,0-46.73-.16-70.1.07-13.22.13-26.35-2.94-39.51-1.38-3.65.43-6-5.92-9.76-1.15l-2.92-.6a3.2,3.2,0,0,1-1.37-3,17,17,0,0,0-2.82-7.45,14.45,14.45,0,0,1-2.52-2.89c-1.61-2.45-1.86-4.85.19-7.2a20,20,0,0,1,13.12-1.91c6.47,1.15,13,.5,19.57.67,6.15.15,11,1.56,11.51,8.9.11,1.72,1.57,2.45,2.81,3.29.75.36,1.5.72,2.29,1,1.51.72,2.7,1.94,4.22,2.65,2.21,1.61,4.21,3.54,7.27,3.51,11.5-.14,23,1.15,34.49-1a15.37,15.37,0,0,1,3.31-.34c3.06.4,5.68-.29,7.39-3.13.63-.81,1.32-1.57,2-2.33,4.67-6.05,4.47-12-.59-16.25-5.09-1.38-9.56,1-13.8,2.88-12.48,5.45-24.18,2.08-35.9-2.24-2.44-.9-4.45-2.45-4.43-5.48a7.11,7.11,0,0,1,2.85-3.75c4-2.11,8-.93,11.76.66,8.25,3.53,16.23,2.91,24.44-.2,9.27-3.5,18.83-6.18,28.35-8.91s12.72,0,11.9,10c-.16,1.82-1,3.4-1.27,5.14-.37,2.22-1.27,4.83,1,6.32,3,1.93,4.49-1,6.32-2.58.39-.33.75-.68,1.12-1.06a3.9,3.9,0,0,0,1.05-1.1c1.86-3.81-1.31-10.42,4.77-11.55,7.21-1.35,14.42-5.42,22.11-1.8a6.53,6.53,0,0,1,2.25,6.14c-1.11,9-1.86,18-5.62,26.5C376.3,259.92,375,262.53,371.27,262.42Z"/><path class="cls-7" d="M467,365.39c-27.46,11.06-54.33,2.34-71.25-22.5l-1.35-.19c-4.68-2.78-5.46-6.93-4.17-11.8.87-2.34,2.61-3.89,5-3.77,10.21.51,20.35-1.77,30.54-.67,6.48,5.2.08,8.51-2.21,13.13,3,.31,5.86-1.38,8.43.19,17.09-1.63,34.28.43,51.37-1.62,2.9-.35,7.39-2.46,8.35,3.21C486.44,352.38,477.2,359.38,467,365.39Z"/><path class="cls-8" d="M406.1,525.55c-6.29,5.29-11.31,12-18.25,16.54a1.06,1.06,0,0,1-1.71.5c-10.17,4.81-20.94,5-31.85,4.14l-1.16.29c-15,1.2-33.65-14.1-34.83-28.62.5-5,3.65-7.39,8.27-6.5s10.14-3.13,14.33,1.77,9.21,4.29,11.65-1.7c2-4.81,5.51-7.16,9-3.8,4.06,4,4.09-.74,5.92-1.44,4.5-1.29,5.27,3.38,8,4.95a5.58,5.58,0,0,1,1.43,1.71c1.28,2.85,2.86,5.55,6.4,5.48s3.86-3.37,4.92-5.83a7.36,7.36,0,0,1,1.69-2.46c5.91-4.07,12.82-1,19.19-2.58,2.62-.64,2.95,2.63,1.51,5q-1.55,5.4-3.08,10.81A1.64,1.64,0,0,1,406.1,525.55Z"/><path class="cls-9" d="M134.43,173.71c-8.32-3.71-17.81-2.53-26.15-6.18,1.64-14.66,23.94-32.54,44.2-30.94,2.5.2,5,.15,7.53.22a1.46,1.46,0,0,1,2.31.55c13.68,2.9,22.31,12.39,30.14,22.94a5.52,5.52,0,0,1,2.24,3.26,4.29,4.29,0,0,1-.61,3.86c-.47,2.2.47,6.06-3.54,5-9.71-2.6-19.27-3.07-28.92-.09-4.93.83-6-3.34-8.33-6.13-2.89-3.46-3-9.38-8.78-10.23a2.84,2.84,0,0,0-1.46,2.11C143.61,165.18,137.48,168.59,134.43,173.71Z"/><path class="cls-10" d="M473.34,277.31c6.87,5.67,14.7,10.38,18.55,19,1.22,2.72,2.92,5.25,2.68,8.42-3.27,5.47-8,6.87-14,5.12a6.47,6.47,0,0,1-2.29-.77,11.39,11.39,0,0,1-2.94-3.57c-1.9-3.67-3.92-6.22-7.52-1.39a5.63,5.63,0,0,1-5.45,2c-5.92-.7-14.1-12.3-13.06-18.52,2.94-2.42,5.46-.27,7.8.61-1.53-.74-3.3-1.75-5.43-1.71a3.45,3.45,0,0,0-3.37,2.72c-.31,6.89-4.25,9.8-10.8,9.75-10.77-.07-21.6,1.17-32.28-1.28-2.69-.61-5.54-.79-7.21-3.47a5,5,0,0,1-.34-5.26,13.82,13.82,0,0,1,2.73-4.53C412.8,272,427.09,265,445.35,266.7c7,.64,14.13-.37,20.74,3,3,1.5,6,2.87,7.14,6.36C473.27,276.47,473.31,276.89,473.34,277.31Z"/><path class="cls-11" d="M350,80.8c3,9.47,9.93,11.88,19,10.91,3.79-.4,5.48,4.51,9.37,4.37,0,12.52.34,12.83,14.09,12.92,6.08,0,12.17-.19,18.24.06,7.91.32,15.24,0,17-9.94,3.66-1.22,3.36-5.85,7-7.53,6.11-2.84,10.55.36,15.34,3-.86,2.95-1.73,5.9-2.59,8.84.06.41.12.83.17,1.24-.1,9-6.39,14.42-12.82,18.49-20.77,13.12-42.26,14.4-63.82,1.38a19.45,19.45,0,0,1-2.83-2.11c-7.2-5.52-13.64-11.66-16.13-20.83-.28-.71-.56-1.41-.86-2.11C348.44,93.93,343.83,88.76,348,82A3.69,3.69,0,0,1,350,80.8Z"/><path class="cls-12" d="M326.81,385.35c4.46,7.16,3.13,15.06,3,22.81-2.43,8.22-8.75,13.48-14.54,19.16a6.88,6.88,0,0,1-.63,2.51c-8.37,9-26.42,10.57-35.81,3.06a9.27,9.27,0,0,1-1.23-2.3c-11-4.81-17.16-13.47-19.82-24.9a2.32,2.32,0,0,1-.12-2.66l.65-8.6c3.25-6.21,5.64-6.69,15.85-3.15,1.79-2.61-.62-9,6.23-7.25,2.88,5.83.28,12.41,2.57,18.29-.6,9.3-.45,9.48,8.65,9.64,2.79.05,5.58,0,8.38-.11,4.05-.18,5.28-2,5.51-6.27.37-7.18-.44-14.55,2.14-21.53,1.94-1.27,3.61-.38,4.5,1.2,2.79,4.94,5.71,4.94,9.34.87C322.84,384.54,324.77,383.88,326.81,385.35Z"/><path class="cls-13" d="M200.22,74.54c-6.89-6.09-13.27-6.37-19.88-5.9-4.38.31-8.58-1.07-12.58-2.57-7.51-2.8-13.08-10.37-12.71-17.37.43-8.12,5-13.88,12.25-17a36.31,36.31,0,0,1,31,1C208.66,37.78,212,50.23,204.83,59,201.43,63.15,199.19,67.14,200.22,74.54Z"/><path class="cls-14" d="M64.2,53.52c-3.41-16.45,11.6-34.29,30.1-35.3,21.75-1.18,40.29,15.52,34.18,38.47-4.55-2.71-9.18-5.3-13.71-8-1.6-2.57-2.79-5.37-4.34-8-1-1.73-2.26-3.8-4.58-3.3-2,.43-1.93,2.75-2.36,4.39-1,4,1.39,8.8-3,11.94-3.78,2.71-7.94-.07-11.85.78a9.22,9.22,0,0,1-4.52-.07C77.63,51.21,70.82,54.3,64.2,53.52Z"/><path class="cls-15" d="M479.48,307.64c5.48,1.32,10-2.42,15.09-2.91l1.92,4.46a3.28,3.28,0,0,1,1.06,2c-2.74,5.73.89,11.8-1.08,17.7-1.41,4.23-1.71,8.83-4.71,12.46-18.53,2.72-37.27.09-55.82,2.25-2.08.25-5.35,2.42-5.39-2.34-2.3-3.79.42-6.14,2.68-8.37a23.2,23.2,0,0,0,6.17-9.22,5.31,5.31,0,0,1,1.54-1.52,5,5,0,0,1,4.42-.09c7,3.39,12.74.94,17.93-3.94,2.43-2.28,5-4.92,8.63-3.6C479.26,317.21,480.56,313.86,479.48,307.64Z"/><path class="cls-16" d="M508.11,250.94c-.76-4.6,1.8-8.45,2.89-12.63-.71-1.24-.37-1.7,1-1.35,16.25-23.46,49.53-16.19,58.69.3,3,5.41,5.11,10.89,4.7,17.15-4.55,4.1-9.35,7-15.59,3.39a4.27,4.27,0,0,1-.05-5.59c4.36-5.23.8-8.12-3-11-4.13-3.18-8.07-3.95-11.92.55-5.1,6-11.7,10.34-17.37,15.72-1.83,1.74-3.62,3.68-6.6,2.57-2.46-1.6-5.22-1.63-8-1.77C508,258,505.6,256,508.11,250.94Z"/><path class="cls-17" d="M340.57,464.32c15.47-7.4,30.91-7.93,46.59-.41,5.47,2.62,9.37,6.65,12.93,11.26.39,6.54-4.33,7.95-9.23,9a19.41,19.41,0,0,1-11.26-.57c-2.4-.53-3.57-3-5.87-3.72-4.81-3.52-8.16-2.58-10.1,3.17a8.14,8.14,0,0,1-3,4.18c-9.31,1.82-18.65.76-28,.34-4.58-.2-6.68-3-7.28-7.27-.42-8.54,4-13.6,13.92-15.91Z"/><path class="cls-18" d="M267.08,558.6c-10.57,20.33-41.58,26.92-60.77,12.88-2.64-1.93-5.14-4-7.71-6.05l-.45-.45c-1.55-4.14-6.49-6-7.18-10.73-2-4.68.15-6.75,4.62-6.34,3,.28,5.9,1,8.85-.11,6.36,2,11.47,1,14.36-5.72a4.79,4.79,0,0,1,1.1-2,11.72,11.72,0,0,1,9.18-2.49,3.78,3.78,0,0,1,3.21,4.49c-.41,3.27-1.18,6.54-4.82,8-.94.38-1.89.73-2.85,1-3.46,1.1-5.78,2.91-5.42,7.06.38,4.31,4,4.81,6.85,6.13,3.95,1.81,6.11-1,8.25-3.47,1.93-2.27,1-6.18,4.34-7.68,7.26.23,14.49,1,21.78.25C264,553,267,554.21,267.08,558.6Z"/><path class="cls-19" d="M116.13,47.36c4.91,2.07,13.43-.63,12.35,9.33C124.1,71.38,112,79.6,96,79.51c-17.74-.1-27.31-12.57-31.82-26,.33-3.91-.59-9.49,6.23-4.37,2.18,1.64,4.8,1.22,7.3.55s5-1.1,6.38,2c0,4.34-2.07,9.61,4.35,11.28,3.49.9,7.77,1.14,9.3-2.83,1.68-4.34,4.14-8.46,4.08-13.56,0-4.77,3.55-6.36,7.88-4.21a9,9,0,0,1,3.37,3A3.78,3.78,0,0,0,116.13,47.36Z"/><path class="cls-20" d="M378.86,481.23c7.61-.16,15.58.92,21.23-6.06,7.93,5.61,9.79,14.44,12.21,23a1.77,1.77,0,0,1,.19,2.55c-1,4,.83,8.52-1.93,12.27-.17-1.14-.42-3.37-1.69-2.41-5.85,4.36-12,.8-17.91,1.16-5.66.77-11.33,1.32-17,1.54-4.22.19-4.15-3.94-6.11-6-3.4,1.42-5.34-.18-6.22-3.28a5.17,5.17,0,0,1,2.24-5.94c3.51-2.39,5.43.89,7.29,2.15-1.93-3-6.52-4.8-6.24-9.87,1-4.77,5.6-5.56,8.74-8A35.79,35.79,0,0,1,378.86,481.23Z"/><path class="cls-21" d="M560.23,255.9c5.3,2,9.94-2.82,15.18-1.49-.1,17.51-10.88,29.48-29.42,32.69a33.37,33.37,0,0,1-36.53-20.76c-1.16-3-2.51-6-3.51-9.09-.82-2.51-1-5.05,2.16-6.32.27,3.68,2.32,4.36,5.65,3.76,4-.73,7.54,0,8.54,4.88,1.05,2.4-.47,4.91.55,7.42,3.38,8.3,10.21,9.84,16.78,3.76,4.64-4.3,9-8.9,13.57-13.24C555.14,255.67,557.12,253.08,560.23,255.9Z"/><path class="cls-22" d="M305.2,74.87c1.85,26.22-30.62,42.21-51.94,29.7-2.35-1.37-4.42-3.44-7.38-3.63l-.31-.42c-7.15-8.2-11.3-17.45-10.14-28.59,4.46-4,6.68,1.62,10,2.32a22.81,22.81,0,0,0,6.42,5.18c2.86,1.76,5,3.7,5.74,7.42.89,4.69,4.22,7,9,5,3.17-1.34,5.79-.5,8.71.3,3.33.9,7.95,1.07,8.23-2.78.57-7.86,7-10.33,11.29-14.85C298.32,73.62,301.87,70.83,305.2,74.87Z"/><path class="cls-23" d="M275.28,525.58l-3.63-.17c-5,0-5.75-4.81-8.33-7.51-2.2-2.3-3.86-5.08-6-7.48-1.27-2.4-3.69-3.24-5.87-4.45-2.61-1.45-4.16-3.6-3.66-6.78,5.53-7.58,6.76-17.18,11.85-25a5.11,5.11,0,0,1,4.6-.9c5.73,3.93,9.15,10,13.29,15.24a278.18,278.18,0,0,1,16.64,24.26c3.83,6.09,2.86,8.12-3.89,10.16C285.44,524.46,280.76,527.45,275.28,525.58Z"/><path class="cls-24" d="M326.81,385.35c-3.25,3-4.64,7.26-10.35,8.4s-6.66.07-6.54-4.92c0-1.66-.92-3.34-1.42-5l-1.25.31c-9.36.6-18.72,1-28.06-.3-2.4,3.88-.55,8.36-1.87,12.94-6.1-3.08-12.2-6.71-19.05-2.35,0-5.57,3.19-10,5.44-14.75-.25-1.09.15-1.44,1.2-1,3.86-4.78,9.3-7.35,14.44-10.34.67-1.49,1.42-2.91,3.08-3.53,3.31-1.66,6.72-2.75,10.48-1.86a27,27,0,0,0,3.6.05c11.26.76,21.48,3.46,27.14,14.59a8.12,8.12,0,0,1,.13,3.57Z"/><path class="cls-25" d="M157.41,278.75c19.05,8.25,25.36,28.29,14.81,47.07a2.71,2.71,0,0,1-2.83-1.35,13.63,13.63,0,0,1-1.22-4.33c-.25-1.82.69-4.48-2.23-4.94s-4.91,1.37-5.77,3.94c-1.2,3.6-2.06,7.26-4.86,10.1-4.2,4.25-8.7,3.45-10.12-2.36-1-4.21-2.69-7.19-6.56-9.51-4.48-2.68-5.14-7.45-3.71-12.13,1-3.24.65-8.27,6.59-7.23,1.08,1,2.11,2.1,3.21,2.07a5.22,5.22,0,0,1-2.54-1.44c-4.11-2.91-5.32-5.84-.46-9.32,2.61-1.86,3.71-5.45,7.1-6.52,2.28-.63,5.3.17,6.14-3.24C155.56,278.64,156.26,278,157.41,278.75Z"/><path class="cls-26" d="M305.2,74.87c-3.21-1-5.66,3.56-9.06,1.25-7.62-4.37-12.45-10.46-11.43-18,.44.94,1.52,8.07.67,9.77-1.59,3.19-3.92,4.2-6.16.81-3.33-5-8.14-8-13.28-10.67-3.14-1.62-7-1.48-7.47,2-.9,6.85-5.53,9.66-10.54,12.64-1.47.87-1.56,3.26-3.67,3.54l-8.83-4.32a41.32,41.32,0,0,1,7.22-16.87l.18-.28c6-3.86,11.49-8.45,18.36-10.76.35-.56.77-.63,1.25-.15C283.14,38.44,306.86,58.05,305.2,74.87Z"/><path class="cls-27" d="M586.23,163c1.68,20.37-18.13,36.18-38.18,30.42-2.66-.77-5.2-1.93-7.79-2.91-1.45.07-2.93.49-4.31-.33A16.3,16.3,0,0,1,525.9,178.7c-.65-1.45-1.39-2.84-2.06-4.28-.62-3.66-1.14-7.31.93-10.72,8.71-2.29,15.41,1,21,7.54,7.39,2.51,14.71,3.2,21.9-.62,2.84-4.36,7.43-6.25,11.82-8.44C581.91,161,584.18,161.09,586.23,163Z"/><path class="cls-28" d="M456.3,438.74c4.9,7.54,5.17,15.91.29,22.76-6.91,9.7-16.78,15.23-29.45,12.4-9.34-2.08-15.83-7.42-18-17.12-1.29-2.07-.58-4.37-.7-6.56-.31-5.38,2.37-6.6,7-4.9a8.14,8.14,0,0,1,4.46,2.66c4.23,4.54,9.09,7.08,15.51,5.21A4,4,0,0,1,439,454c-1.78-3.06-1.16-5.64,1.56-7.8C447.4,447.07,451.14,441.43,456.3,438.74Z"/><path class="cls-29" d="M81.23,162.51C71.36,179.93,59.9,185.75,42.87,182,27.64,178.65,19,166.84,20.08,150.91c4.53-3.25,7.43,1.76,11.24,2.19a12,12,0,0,1,5.13,4.35c6.54,9.83,14.35,12,25.07,7.22,1.23-.55,2.33-1.11,2.58-2.47.92-5.18,5.09-8.64,7-13.31,3.46-3.19,6.82-.47,10.22.16,2,3.45.79,7,.41,10.57A2.33,2.33,0,0,1,81.23,162.51Z"/><path class="cls-30" d="M586.23,163c-5.75,3.36-13.26,4.39-15.79,12-3-2.53-3.12-6-3.28-9.51.36-11.94-7.24-15.55-20.34-9.66-3,3.07-.6,6.49-.63,9.76-.59,3.39-.9,6.9-3.76,9.37-2.41-3.4-3-9.06-10-5.74-2.53,1.19-2.64-4.8-5.43-6.18-5.58-5.44-1.18-9,2.4-12.72a8.84,8.84,0,0,1,2.3-1c6.41-2.64,10.91-8.31,18.22-9.91C565.5,136,580.54,144.49,586.23,163Z"/><path class="cls-31" d="M469,52c5.31-13,17.45-21.57,30-21.28,13.67.32,24.49,7.82,29,20.31,1.93,5.31,2.49,10.74.42,16.19-.74-.14-1.72-.38-1.91-1-1.84-6.11-6.18-6.73-11.49-5.35-3-.91-3.85-4.72-7.09-5.39a5.3,5.3,0,0,1-1.5-1.29A19.86,19.86,0,0,0,502,50.43,40.73,40.73,0,0,0,494.42,46c-6.69-1.53-5.49,5.82-8.95,7.92C479.71,55.45,473.92,57.25,469,52Z"/><path class="cls-32" d="M189.31,522.44a86.84,86.84,0,0,1,14.1-15.14c8.05-1.78,16.13-.61,24.19-.21,5.24.26,6.7,4.78,8.89,8.4,1.06,4.19-1,8-1.76,11.87-2.18,10.6-14.24,15.1-21.22,6.82-5.32-1.86-10.93-1.86-16.44-2.51-3.46-.4-6.5-1.11-7.82-4.81l-.47-2.53A1.22,1.22,0,0,1,189.31,522.44Z"/><path class="cls-33" d="M29.35,156.93a30.22,30.22,0,0,0-9.27-6c1.44-21.68,22.53-30.53,39-25.92,12.22,3.41,20.51,10.79,22.17,24.06-3,4.29-6.44,1.25-9.74.5-3,1.82-4.66-.3-6.22-2.29-6.44-8.23-16.23-10.21-24.69-5-2.44,1.5-2.47,4.26-3.67,6.39C35.07,152,31.66,154,29.35,156.93Z"/><path class="cls-34" d="M267.08,558.6c-5.84-4.2-12.21-.17-18.31-1.11-3.69-.56-7.63.27-10.38-3.18-7.73-3.39-8.19-4.65-5.08-14.08,2.87-4,7.26-5.13,11.68-6a81,81,0,0,0,14.35-4.33c4.12-.59,7.9-4.71,12.42-1.2l.23,2.42c2.11,4.81,1.83,9.66.24,14.54C271.8,550.45,270.77,555.05,267.08,558.6Z"/><path class="cls-35" d="M538,188.94c.75.54,1.5,1.08,2.26,1.61-2.82,5.17-7.44,8.87-11,13.43-2.37,3-2.33,4.86,2.25,5,7.6.3,15.2.84,22.79,1.34,3.66.24,6.8-.24,9.72-3,3.3-3.15,7-2.45,10,1,2.59,3,2.2,6.18-.38,8.88-3.15,3.3-7.24,3.58-10,.11-3-3.83-6.57-4-10.71-4.14-7.35-.24-14.72-.57-22-1.33-5.24-.55-8.63,1.27-11.24,5.74a101.16,101.16,0,0,1-8.58,12.52c-2.4,3-1.67,4.9.93,6.88l-1,1.35c-4.23-2.65-6.68-.84-9.3,2.86-7.85,11.14-15,22.84-24.42,32.81-1.2,1.26-1.93,3-3.94,3.33l-.18-.17c-2.68-3.88-1.08-7.06,1.58-10.15a281.66,281.66,0,0,0,18.15-24c3.42-4.94,2.91-8.08-2.73-10.49-4-1.7-7.72-3.9-8.21-8.93a4.89,4.89,0,0,1,1.31-3c5.19-2.44,8.47,2,12.39,3.67,7.7,3.33,10.77,2.58,15.07-4.38,2.21-3.58,1.73-5.66-2.79-6-4.29-.29-8.59,0-12.87-.3-3-.19-6.19-.2-7.68-3.68a4.67,4.67,0,0,1,.46-3.47c6.81-5,14.73-3.35,21.86-2.25,8.38,1.29,13.5-1.27,17.64-8.08C529.69,192.29,532.66,188.72,538,188.94Z"/><path class="cls-36" d="M186.32,435.56c2.61,4.07,7.1,6.95,7.75,12.24-3.17,7.22-9.09,6.63-15.24,5.36-5.92-.28-5.78-4.39-5.52-8.57-3.49-1-6.89-1.2-10.18.33-.13,3.91-.09,7.94-5.56,8.21-11.5,1.74-13.81.61-17-8.35,12.42-16.35,27.73-20,44.36-9.58C185.56,434.68,186,434.84,186.32,435.56Z"/><path class="cls-37" d="M500.37,90.65c-12.95-1.8-25-5.08-30.48-18.88,3.48-5.28,8.87-3.11,13.59-3.41,2.74-.17,5.36.88,8,1.56a182.68,182.68,0,0,0,19.31,1.27c3,0,6.1-.17,9,.59,2.73.71,5.5,1.79,3.76,5.64-4.43,8-12.41,10.61-20.35,13.26A3.1,3.1,0,0,1,500.37,90.65Z"/><path class="cls-38" d="M275.28,525.58c21.27-4.37,20.92-4.15,9.34-22.36-6.24-9.82-14.66-18-20.39-28.09,0-2.24.86-3.63,3.3-3.61,10.21,8.86,16.82,20.53,24.43,31.4,1.44,2.06,2.78,4.23,4,6.42,2.61,4.66,6.28,6.14,11.43,4.65,3.61-1,7.31-2.27,11.09-.48,1.35,1,1.48,2.42,1.28,3.94-1,2.63-3.27,3.8-5.71,4.6-5,1.64-4.41,4.51-2.16,8.15,7.32,11.84,16.09,22.64,24.26,33.87,3,4.09,4.79,2.59,6-1.35,1.1-3.63,1.85-7.36,3-11,1.36-4.47,4-6.93,9.07-5.14l.12.13c-2.36,6.88-4.76,13.74-7.05,20.64-1.28,3.84-2.42,7.55.74,11.37,2.1,2.54.66,5.22-1.45,7.42s-4.64,3.05-7.55,1.77c-2.75-1.22-5.41-3.71-4.39-6.35,3.28-8.49-2.67-13.67-6.92-18.6-8.94-10.41-16-22.08-23.43-33.42-3.84-5.84-7.7-7.14-13.87-4.87A116.46,116.46,0,0,1,277.92,528C275.94,528.53,275.14,527.5,275.28,525.58Z"/><path class="cls-39" d="M353.84,98.8l.84,2.85c-.95,4.1-4.54,5.32-7.77,6.41-6.94,2.34-13.35,6-20.4,7.94-8.15,2.24-11.22,7.76-11.38,15.64-.08,4.52-.05,9-1.57,13.42-1.06,3-2.13,5.78-6.16,5.12-3.71-1.9-3.22-5.15-2.74-8.44a22.26,22.26,0,0,0,.2-4.47c-.17-3.47,1.53-7.2.08-10.32-1.78-3.82-6.06,0-8.86-1.75a6.66,6.66,0,0,1-1.73-1.39,1.82,1.82,0,0,1,.29-2c13.53-2.27,18.7-10.69,18-23.81-.23-4,.4-8.09.83-12.12.7-6.52.77-6.51-7.48-9.44,11.26-.4,9.37-8.12,10-13.86,1.91-16.6,3.34-33.26,5-49.89.11-1.21,0-2.59,2.07-3.33,1.79,2,.91,4.6.7,6.82-1.65,16.89-3,33.84-5.39,50.62-1.09,7.52.68,10.47,8.19,9.74.58,4-3.24,4.65-5.05,6.84-3.35,6.29-1.74,13.34-3.09,20-.76,3.75,2.26,3.82,5,3.08,5.89-1.56,11.31-4.3,16.93-6.56C344.63,98.14,349,95,353.84,98.8Z"/><path class="cls-40" d="M456.3,438.74c-1.93,10.73-3.68,11.8-14.87,9-3.35-1.18-2.92-5-5.17-7.17-5.53-5.33-10.76-5.12-15.29,1.05-1.46,2-1.38,5-4.14,6.12-9.11-2.56-7.57,3.95-7.71,9-2.26-4.29-.53-8.93-1.21-13.36a2.65,2.65,0,0,1,1.15-2.91c7.22-12.63,18.34-16.42,32.15-14.14C447.16,429.38,452.45,433.19,456.3,438.74Z"/><path class="cls-41" d="M233.77,516.23c-2.21-5.07-6.19-6.38-11.48-6.14-6.41.29-13,1-18.88-2.79,10.79-10.41,24-10.71,37.64-8.76,1.74.25,3.45.64,5.17,1,1.13-.77,2.11-.78,2.84.54,3,3.46,8.27,4.24,10.52,8.65-3.14,7-9.7,5-15.22,5.78C240.5,513,237.34,515.88,233.77,516.23Z"/><path class="cls-42" d="M493,73.21a109.27,109.27,0,0,0-23.13-1.45c-2.82-6.48-3.43-13.06-.9-19.79,5.51-.68,11.31,1.42,16.56-1.73a3.38,3.38,0,0,1,2.17-.66c3.81,1.07,7.57,2.24,10.17,5.54.82,1.42,1.75,2.8,1.74,4.54C499.44,65.15,498.85,70.45,493,73.21Z"/><path class="cls-43" d="M242.45,511.84l17.13-3.15c6.14,4.05,8.94,10.5,12.07,16.72,0,1.09.07,2.17.11,3.25-3.44.89-6.13,4.28-10.2,3-5.75-1.7-11,1.37-16.49,1.9-4.55.43-8.11-.17-9.67-5.06C235.37,522,236.92,516.07,242.45,511.84Z"/><path class="cls-44" d="M131.62,105.72c1.94,6.37,4.5,12.69,1.71,19.47-3.42-.69-3.14-4.48-5.29-6.24-7.4-5.73-8.19-5.51-11.42,3a4.08,4.08,0,0,1-3.33,2.73,4.66,4.66,0,0,1-2.05-.39c-1.9-2.78-3.21-6.35-7.68-5.76-2-1.32-3.52-3.36-6.14-3.64a5.12,5.12,0,0,1-3.2-5.49c12-13.67,16.26-14.32,35.85-5.47C131,104.22,131.86,104.47,131.62,105.72Z"/><path class="cls-45" d="M140.56,444.78c5.3,4.51,11.24,7.09,18.38,6-.48,6.72,2.27,12.75,4.08,19a9.26,9.26,0,0,1-5.18,4.38c-5.38,1.62-10.73.52-16.08-.21C134.15,464.54,134.57,454.77,140.56,444.78Z"/><path class="cls-46" d="M112.13,123.41l.69,0c7,1.48,12.67-.56,17.22-6,2.91,1.84,2.77,5,3.29,7.8-3.93,10.37-10,14.88-19.64,14.7-10.12-.19-17.43-5.5-20.42-14.83-1.69-1.84-2.23-4.08-.38-5.8,2.53-2.35,4.12,1.56,6.42,1.46,1.74.14,2.93-1.2,4.45-1.65C108.25,117.26,109.46,121.73,112.13,123.41Z"/><path class="cls-47" d="M141.76,474c4.73-5.51,10.59-1,15.85-1.77,5.55,2.42,11.16,3.07,16.88.6,1.74-.7,2.74-2.35,4.3-3.3,5-1.38,9.92-2.31,13.69,2.64C180.59,491.55,157.92,492.37,141.76,474Z"/><path class="cls-48" d="M215.07,250.14l.57,2.94c-19.38-4.11-38-11-57-16.25-9.78-2.71-9.68-3-10.34,7.38-.23,3.79-.49,7.59-1,11.35-.17,1.29-.28,3.45-2.59,2.74-1.78-.54-.72-1.9-.56-3.1.9-7,4.24-15.17.85-20.73-3.24-5.28-12.18-5-18.64-7-10.87-3.39-21.93-6.2-32.91-9.26-1.25-1.52-.61-2.87.37-4.19a4.73,4.73,0,0,1,2-1.09c14.62,1.29,28,7.32,41.88,11.37,4,1.16,6.66.83,9.48-1.69l2.41,0c5.1,7,12.44,9.83,20.56,11.48,11.12,2.26,21.61,6.83,32.74,9.09A23.09,23.09,0,0,1,215.07,250.14Z"/><path class="cls-45" d="M192.48,472.14c-4.8.51-9.64-1.2-14.42.24-4,.05-6.38-2.72-4.48-5.63,3.33-5.09,2.79-10.42,3.24-15.79,6,.43,11.68-1.13,17.25-3.16C200.66,455.5,200.12,463.75,192.48,472.14Z"/><path class="cls-49" d="M289.84,37.61c-2.61-4.57-7.4-3.24-9.83-5.16S278.8,25,275.38,22.34c2.95-2.89,2.29-9,4.59-10,3.39-1.44,8.48-5.18,10.24-3.9,3.72,2.73,9.64.72,11.18,4.3,1.39,3.2,4.62,7.34,3.64,9.79-1.33,3.28-1.41,7.77-4.1,9.83C297.9,34.67,292.58,32.45,289.84,37.61Z"/><path class="cls-50" d="M220.56,378c-5,1.55-2.05,8.21-5.17,9-3.67.9-8.2,4.87-9.58,3.72-3.64-3-10-.79-11.25-4.51-1.2-3.47-5.45-7.82-4.06-9.42,2.83-3.27,1.68-9.18,4.87-10,3.93-1.06,9-4.68,11.19-3.3,3.28,2,8.92,1.2,9.58,4.18C217,371.34,219.1,374.22,220.56,378Z"/><path class="cls-51" d="M523.55,77.42c-4.49-5-10.33-1.78-15.52-2.52-4.51-1-5.47-4.73-6.53-8.39.57-9.78,2.93-11,13.14-7,1.4-1,2.67-2.39,4.23-3.08,6.31-2.81,8.85-1.25,9.32,5.48.12,1.76.19,3.52.28,5.28C528.06,71.19,527.08,74.91,523.55,77.42Z"/><path class="cls-50" d="M195.3,135.34a52.12,52.12,0,0,0-10-4.46c-2.68-.93-1.2-7.37-4.88-9.85,2.27-3.17,2.52-8.43,4.76-10a26.33,26.33,0,0,1,10.6-4.23c4.3-.65,15,10.06,14.92,14.08C210.61,124.53,199.74,135.22,195.3,135.34Z"/><path class="cls-52" d="M312.83,568.38c-.45,4.58-12.85,15.85-16,14.3-3.45-1.73-8.42-2.3-10.09-4.61a26.56,26.56,0,0,1-4.31-9.64c-.85-4.49,11.57-15.24,15.6-13.73,3.39,1.27,8.82,2.08,9.73,4C309.38,562.12,310.47,565.83,312.83,568.38Z"/><path class="cls-53" d="M233.26,293.14c-4.4,2.62-3.48,8.2-6,9.94-3,2.1-7.62,3-11.38,3.81-2,.43-7.42-1.91-9.33-3.93-2.19-2.3-2.46-6.9-5-9.84,3.18-2.63,2.64-7.47,4.84-9.83,2-2.17,7.57-4.13,9.59-3.63,3.8.92,8.51,1.48,11.42,3.56C229.79,284.93,228.84,290.55,233.26,293.14Z"/><path class="cls-54" d="M105.19,301.2c2.67-14.72,12.3-22.3,26.23-25.48,2.88,2.72,1.27,5.16-.48,7.6a7.61,7.61,0,0,1-2.78,1.88c-1.64.56-4,.42-3.21,3.33.75,1.94,3,2.41,4,4.1a12.41,12.41,0,0,1-12.15,15.89c-1.7,0-3.38-.83-5.15-.44-2.65-.13-4.08-2.16-5.81-3.71C105.23,303.39,104.59,302.42,105.19,301.2Z"/><path class="cls-55" d="M189.25,526.86l24.67,4.48c-.52,1.71-2,2-3.45,2.49-6.49,2.24-8,5.23-5.91,11.85a7,7,0,0,1,.12,4.41c-2.68,2.17-5.54,3-8.84,1.37-3-1.52-4.66-.58-4.87,2.79q-1.93-3.5-3.86-7a2.44,2.44,0,0,1-.14-2.2C188.84,539.12,186.29,532.65,189.25,526.86Z"/><path class="cls-56" d="M294.64,121.81l.09,1.92c-5.52,6.75-6.9,14.36-5,22.77.23,1-.78,2.3-1.67,3.22a4.74,4.74,0,0,1-2,.88c-5.84-.63-6.18-5.46-6.76-9.55-.73-5.16-3.41-5.61-7.48-4.17-2.15.76-4.25,1.68-6.37,2.53-7.56,3-7.77,3.55-4.24,10.83,1.16,2.41,1.77,4.73.25,7.19a4.33,4.33,0,0,1-2.14.92c-7.34-1.87-9.93-7.55-11.39-14.14.2-1.9-.73-4,1-5.65,9-3.33,17.91-6.71,26.91-10,3.1-1.13,3.37-3.31,2.85-6-.73-3.89-1.39-7.8-2.28-12.81,4.26,2.24,4.12,5.46,4.37,8,.64,6.64,3.11,9.08,9.48,5.29C291.55,122.3,293.19,122.21,294.64,121.81Z"/><path class="cls-57" d="M433.49,381.1c10.66-1.58,20.78-5.22,31.18-7.82,5.32-1.34,2.89-4.7,2.61-7.61,5.06,6.27,11.2,3.83,17.27,2.16,6.84-1.89,13.7-3.73,20.56-5.58a1.18,1.18,0,0,1,.56,1.17c-.09.45-.21.67-.34.67-8.34,3.72-17.21,5.73-26,7.8-4.5,1.06-5.82,2.58-3.51,7.21,2.65,5.31,5.06,10.42,11.29,12.28-2.17,3.34-4.74,4.33-8,1.38-6.23-17.89-6.23-17.91-23.93-13.86-6.84,1.57-13.83,2.75-19.91,6.62A3.08,3.08,0,0,1,433.49,381.1Z"/><path class="cls-58" d="M105.19,301.2l1.67,1.86c3.13,3.64,3.24,8.41,4.38,12.7,1.84,6.93,6.6,11.1,12.12,14.8.88.59,1.93-.16,2.86-.55a5.63,5.63,0,0,1,4.26-.33c5,6.32,11.38,7.59,18.85,5.54,2.19-.61,4.48-1,6.67.21a3.59,3.59,0,0,1,1.65,2.88c-14.26,8.29-27.89,5.13-40.5-3.3-10.26-6.86-13.77-17.59-13.34-29.64C103.86,304,104.71,302.59,105.19,301.2Z"/><path class="cls-59" d="M263.71,379.68l-77-43.37c3.85-1.65,6.25.58,8.69,1.94,22.18,12.28,44.26,24.76,66.32,37.26,1.26.71,2.14,2.08,3.19,3.14Z"/><path class="cls-60" d="M409.06,440.51c-.39,1-.77,1.94-1.15,2.91q-36.09-14.87-72.16-29.77c-2.37-1-5.75-1.26-5.67-5.12q33.06,13.65,66.12,27.26C400.42,437.52,404.77,438.94,409.06,440.51Z"/><path class="cls-61" d="M200,424.9c3.12,15.42,8.58,30.18,12.91,45.26,1,3.44,4.44,3.92,6.53,6s5.55,4.11,2.48,7.41c-2.62,2.81-5.51,6.51-10.41,4-3.7-1.94-5.79-5.77-3.54-8.79,4-5.41,1.62-10,.12-14.95q-5.66-18.54-11.35-37.08C197.28,425.11,198.27,424.33,200,424.9Z"/><path class="cls-62" d="M508.68,127.54c2.51.5,3.62-1.24,4.81-2.94,6.27-8.92,12.5-17.86,18.92-26.68,1.11-1.53,1-2.14,0-3.74-3.68-6.12,1.63-8.18,5.54-9.9s7.09.9,8.24,4.58c1.48,4.67-.81,8.34-5.55,9A11.07,11.07,0,0,0,533,102c-7.11,9-15.18,17.41-18.29,28.92l-.68.82c-2.8,1.09-4.87.36-6.13-2.42A1.84,1.84,0,0,1,508.68,127.54Z"/><path class="cls-63" d="M71.43,215l-22.83-.49c-4.79-.11-9.41-.5-13.56,3.23-3.28,2.95-6.78,1.14-9.12-2.1s-1.58-6.25,1.07-8.91c3.1-3.12,7-3.2,9.26.12,3.19,4.59,7.4,4.61,12,4.8,10.41.43,20.81,1.05,31.22,1.59a1.5,1.5,0,0,1-.46,2.18C76.48,215.54,73.92,216,71.43,215Z"/><path class="cls-64" d="M386.14,542.59l1.71-.5c5.86,10,10.56,20.59,17.9,29.69,1.93,2.39,3.33,4.52,6.64,5.52,4.19,1.28,7,4.54,4.88,9.34-1.56,3.55-4.72,6-8.53,3.86s-8.37-4.75-3.82-10.4c2.09-2.59.13-4.71-1.38-6.71C396.37,563.89,391,553.38,386.14,542.59Z"/><path class="cls-65" d="M249,138.56l1.41,5a3.94,3.94,0,0,1-2,.63c-3.37-.38-3.52-3.06-4-5.53L203.64,81.85c3.2-.91,3.89,1,4.74,2.27,11.47,16.92,25,32.38,35.8,49.75A13.45,13.45,0,0,0,249,138.56Z"/><path class="cls-66" d="M107.39,350.06c-3.24,6.85-9.89,11.81-9,20.73.31,3-3.94,4-7.25,3.82a6.4,6.4,0,0,1-6.29-5.56c-.64-3.2,1.44-6.57,3.92-6.41C98.59,363.3,101.47,354.92,107.39,350.06Z"/><path class="cls-67" d="M435.21,388.27c7.35,6.14,14.06,13,22.15,18.34,3.64,2.39,6.69,4.84,11.5,4.68,4.07-.14,6.44,2.91,6.32,7s-2.45,6.67-6.66,6.77-7.35-2.54-7-6.38c.57-5.8-3-7.8-6.7-10.56-5.47-4-10.48-8.7-15.72-13.06-2.09-1.75-3.85-4.18-7.11-3.74C431.64,388.81,433.2,388.31,435.21,388.27Z"/><path class="cls-68" d="M190.91,414.27c-7.34-16.26-13.35-33.13-22.9-48.36a30.48,30.48,0,0,1-3.95-11c13.46,17.55,19.86,38.63,29.77,57.93C193.28,414.22,192.46,415,190.91,414.27Z"/><path class="cls-69" d="M37.07,251.07,95.5,282.66l-1.14,2.13C74.79,275,55.7,264.29,36.74,253.33A1.46,1.46,0,0,1,37.07,251.07Z"/><path class="cls-70" d="M362.25,50.72l-1.33,1.94c-6.31-4.61-12.69-9.14-18.88-13.89a9.12,9.12,0,0,0-7-2.14c-4.72.47-8-1.81-8.44-6.63-.35-4.11,2.25-6.86,6.26-7.2,5-.42,7.77,2.7,7.58,7.39-.27,6.61,5.38,8,9,11.1C353.47,44.73,358,47.6,362.25,50.72Z"/><path class="cls-71" d="M87.59,221.2c-.89,7-1.8,14.07-2.67,21.1-.53,4.31-.6,8.22,2.71,12,2.65,3,1.37,6.7-2,9.17s-6.32,1.65-8.82-1.1c-2.82-3.11-3-7.37.26-9.4,5.38-3.32,5.31-8,5.58-13.08.34-6.3.88-12.6,1.33-18.9A2.48,2.48,0,0,1,87.59,221.2Z"/><path class="cls-72" d="M128.45,282c1.47-1.87,3.06-3.69,3-6.29,9.12-2.86,17.89-2.79,26,3l-1.54,1.1c-1.18,2.06-3,1.87-4.87,1.35-2.08-.69-3.58-.37-5.25,1.47C136.37,293,136.3,292.94,128.45,282Z"/><path class="cls-73" d="M282.46,367l-3.11,1.36c-9.16-17.93-18.12-35.95-25.69-54.62a2.58,2.58,0,0,1,2.45-2.08c2.86.41,4.26,2.36,5.3,4.82,5.88,13.95,13,27.27,20.07,40.65C283.1,360.15,285.14,363.37,282.46,367Z"/><path class="cls-74" d="M442.86,19.4c6,.91,11.75,1.63,15.67-4.94,1.85-3.11,5.36-3.73,8.56-1.32,2.67,2,3.87,4.76,2,7.9s-5.39,4.86-8.33,2.62c-5.62-4.27-10.95-2-16.49-.68C442.7,22.21,441.71,21.22,442.86,19.4Z"/><path class="cls-75" d="M127.28,404.69c14.53,4.67,29.77,5.85,44.59,9.1,5.19,1.14,10.42,2.08,15.64,3.11,1.28,1.11,1.24,2.32.28,3.6-14.76-4.62-30.16-6.09-45.24-9.16-5.2-1.06-10.42-2-15.64-3C126,407,125.93,405.77,127.28,404.69Z"/><path class="cls-76" d="M244.4,138.7l4.58,4.39c-1.28,4-5.21,4.62-8.33,5.9C228.48,154,216,158.28,204,163.6c-3.54,1.57-7.19,2.5-11,.88-.18-1.39-.36-2.79-.53-4.19A507.33,507.33,0,0,0,242.57,141C243.36,140.63,243.8,139.48,244.4,138.7Z"/><path class="cls-77" d="M71.43,215l8.26-.29c3.35.45,4.26,2.13,2.62,5.12a296.64,296.64,0,0,0-30.12,15.69c-5,2.92-10.19,5.55-15.29,8.32-3.47,1.36-6.94,2.69-9.37-1.69,19.66-2.64,33.44-17.14,51.41-24C76.43,214.83,73.43,216.4,71.43,215Z"/><path class="cls-78" d="M531.68,149.34l-1.26,2c-5.54,2.55-8.85-1.93-12.7-4.24a23.15,23.15,0,0,1-7.16-6.48c-1.06-3.82.29-6.83,3.17-9.31.32-.15.64-.29,1-.42l33.44-8.85c1.3.45,2,1.25,1.51,2.68q-14.65,3.81-29.3,7.61c-1.73.45-3.63.71-4.18,2.72-.64,2.36,1,3.74,2.65,5Q525.24,144.71,531.68,149.34Z"/><path class="cls-79" d="M447.44,103.38q24.68,12.12,49.35,24.24c2,1,4.06,2,6.46,1.46a1.55,1.55,0,0,1,1,1.81,5.12,5.12,0,0,1-4.22,3.66c-3.78.39-6.81-1.66-9.93-3.23-12.41-6.26-24.81-12.52-37.44-18.33-3.94-1.81-7.09-4.1-5.69-9.2Z"/><path class="cls-65" d="M87.45,320.48c-1.56,3.46-4.85,2.86-7.24,3.48-3.55.91-6.46,1.87-8.47,5.4-2.79,4.89-7.33,5.16-11.65,2.26-3.23-2.16-4.42-5.66-1.84-9.18,3-4.06,7.28-5.13,11.2-2.06,3.38,2.65,6.32,2,9.83,1.22C81.83,321,84.39,319.48,87.45,320.48Z"/><path class="cls-80" d="M131.62,105.72,130.07,104c2.78-2.59,5.55-5.19,8.35-7.76,1.88-1.73,3.52-3.25,2.72-6.43-1.56-6.19,3-8.17,7.68-8.86,4-.59,7,1.76,7.29,6,.36,5.31-2.49,7.81-7.87,7.82C140.36,94.75,137.07,101.9,131.62,105.72Z"/><path class="cls-81" d="M242.65,55.06c-5.08-1.7-9.13-5.88-15.37-5.05-2.54.35-4.47-3-4.26-6.22s1.9-5.28,5-5.9c3.4-.68,7.24.83,7.12,3.94-.26,6.44,4.52,9,7.71,13Z"/><path class="cls-82" d="M187.79,420.5c-.09-1.2-.19-2.4-.28-3.6l3.4-2.63,2.92-1.4c3.55.33,6.33,2.44,9.33,4a1.25,1.25,0,0,1-.08,1.8c-2,1.58-.59,4.85-3.06,6.19l-3.26,1.82-4.18-.14c-2.94,1-1.82-2.54-3.42-3C188.71,422.53,188.25,421.51,187.79,420.5Z"/><path class="cls-83" d="M549.65,124.75c-.5-.89-1-1.78-1.51-2.68,1-2.56,2-5.26,4.55-6.71,3-1.72,5.91-.46,8.43,1.25a5.19,5.19,0,0,1,2.11,6c-.84,3.08-3.18,4.22-6.09,4.85C554,128.12,551.86,126.43,549.65,124.75Z"/><path class="cls-84" d="M203.08,418.71c0-.6,0-1.2.08-1.8,17.86-5.8,36.19-9.72,54.46-13.88l.12,2.66Z"/><path class="cls-85" d="M435.21,388.27l-3.2,3.06v.08c-1.08,1.76-2.23,3.31-4.51,1.52-3.18-1.25-5.44-3.63-7.56-6.18-1.07-1.67.73-2.14,1.32-3.11,3.05-5.76,7.41-5.26,12.23-2.54.59,1.47,1.18,2.95,1.76,4.42C435.24,386.44,435.22,387.36,435.21,388.27Z"/><path class="cls-86" d="M256.81,24.35c-.37-3.48-3.52-3.92-5.8-5.35-3.11-1.94-5.15-4.58-2.66-8.1a7.37,7.37,0,0,1,9.51-2.57c3.52,1.62,4.17,5,2.59,8.42-.93,2-2.84,3.63-2.32,6.19C258.92,24.55,258.08,24.65,256.81,24.35Z"/><path class="cls-87" d="M269,584.52c4.28-.29,8.47,0,9.21,5.32.58,4.19-2,6.41-6,7.2-3.87.75-6.42-.94-7.75-4.32-1.07-2.7-.31-5.42,1.11-7.92C266.62,583.79,267.79,584,269,584.52Z"/><path class="cls-86" d="M479.09,392.76l8-1.38c3.91,2.49,5.84,5.7,2.77,9.93-2.46,3.39-6.24,3.42-9.45,1.57C476,400.33,476.17,396.57,479.09,392.76Z"/><path class="cls-85" d="M127.28,404.69c-.12,1.2-.24,2.4-.37,3.61l-.54.53c-4.28,3.93-8.77,4.29-12.46-.36-2.42-3-1.36-6.7,2.06-8.39C121.08,397.56,125.39,398.57,127.28,404.69Z"/><path class="cls-88" d="M497.55,311.21l-1.06-2c15.29-4.78,31.18-6.48,46.86-9.25a2.11,2.11,0,0,1,.19,3Z"/><path class="cls-89" d="M162.32,137.36l-2.31-.55c3.73-16.8,5.92-34,14.07-49.63C171.58,104.24,165.08,120.38,162.32,137.36Z"/><path class="cls-66" d="M505.33,364.09c-.08-.62-.15-1.23-.22-1.84,1.77-2.36,2.86-5.29,5.78-6.69s5.45-1.23,7.61,1.11,2.71,4.8.87,7.58c-1.73,2.62-4.1,3.78-7.14,2.76C509.87,366.21,507.62,365.07,505.33,364.09Z"/><path class="cls-90" d="M168,519c-3.71,3.06-7.23,3.25-10.28-.85-2.16-2.9-1.53-5.79,1-8,3.91-3.39,7.36-1.63,10.39,1.58a24.35,24.35,0,0,1,2,2.93C173.3,518.46,169.93,518.21,168,519Z"/><path class="cls-91" d="M267,472l-2.77,3.11-4.29.27a1.48,1.48,0,0,1-2.09-.26c-4-8.9-3.5-10.3,4.62-13.89a6.88,6.88,0,0,1,5.06.41C271.37,465.32,273,468.86,267,472Z"/><path class="cls-85" d="M427.65,535.81a31.4,31.4,0,0,0,4.37-.75c4.25-1.34,7.65-.41,9.13,3.94,1.06,3.12.15,6.11-3.27,7.45-4.6,1.8-7.67-.89-10.16-4.15-1-1.28-1.08-3.24-1.58-4.88C425.7,536,426.06,535.34,427.65,535.81Z"/><path class="cls-92" d="M430.4,496.32c1.1-1.65,1.77-3.63,3.74-4.59a6.4,6.4,0,0,1,8.18,1.63c2.19,2.4,1.95,5.13.16,7.59s-4.47,3.5-7.31,2.23c-1.74-.79-3.07-2.47-4.58-3.75A2.17,2.17,0,0,1,430.4,496.32Z"/><path class="cls-93" d="M187,545.05c0,.73.09,1.46.14,2.2-4.86.9-9.53,1.28-12.65,6.55-2.08,3.52-6.67,3.09-10.1.55a6.45,6.45,0,0,1-1.94-8.76c2.07-3.89,6.53-5.58,9.6-3.19C176.91,546.2,181.84,545.16,187,545.05Z"/><path class="cls-94" d="M27.53,242.16c3.16.36,6.53-.45,9.37,1.69.06,2.4.11,4.81.17,7.22l-.33,2.26c-1,0-2.16-.27-3,.12-3.52,1.59-6.37,1.17-8.43-2.31C23.08,247.42,23.86,244.43,27.53,242.16Z"/><path class="cls-85" d="M82.31,219.84l-2.62-5.12c-.07-.49-.14-1-.2-1.47h-.07c.89-2.19,2.2-4,4.72-4.42,3.38-1.68,6.06,1.1,9.12,1.42,1.66,1.24,1.85,2.86,1.25,4.7-.35,1.09-.71,2.17-1.07,3.26l-5.85,3L83.93,221Z"/><path class="cls-95" d="M543.54,303l-.19-3c1.11-1.64,2-3.55,3.38-4.86,2.42-2.25,5.09-1.71,7.43.37s3.28,4.5,1.75,7.39c-1.4,2.64-3.59,4.12-6.76,3.74C546.69,306.29,545.4,304.21,543.54,303Z"/><path class="cls-96" d="M500.37,90.65l2.83,0a293.58,293.58,0,0,0,5.48,36.86c-.11.24-.22.48-.34.71-1.17,1.59-2.52,2.57-4.53,1.36l-.56-.53C504,116.14,500.75,103.51,500.37,90.65Z"/><path class="cls-97" d="M64.26,201.16c-1.43.39-2.85.83-4.29,1.18-4.47,1.06-7.54-.72-8.39-5.09-.72-3.71,1.41-6.39,5.1-7,4.07-.7,6.71,1.29,7.43,5.46.21,1.22.2,2.48.29,3.72A1.14,1.14,0,0,1,64.26,201.16Z"/><path class="cls-98" d="M183.33,586.35c-2.41,3.14-5.39,3.66-8.67,1.58a5.85,5.85,0,0,1-2.89-6.5c.94-4.18,4.4-4.32,7.75-4.57,1.26-.09,2.52-.29,3.78-.44A14.2,14.2,0,0,1,183.33,586.35Z"/><path class="cls-99" d="M442.86,19.4c.47,1.19.93,2.39,1.4,3.58-1.14,4.76-4.53,6.31-9,6.3-3,.67-2-2.13-2.87-3.34-2.09-3.31-1.36-6.38,1.63-8.37C437.22,15.45,440.57,15.63,442.86,19.4Z"/><path class="cls-66" d="M58.27,96.26c-3.73,2.65-7.05,2.23-9.53-1.64-1.89-3-1.17-5.92,1.49-8,3.63-2.8,6.93-2,9.47,1.81C61.12,91.4,61,94.07,58.27,96.26Z"/><path class="cls-100" d="M255.3,312l-1.64,1.73c-.63-.41-1.21-1.07-1.89-1.19-4.76-.81-9.54-2.09-8.87-8.11.7-6.3,5.74-6.8,10.88-6.39l2.23.63C262.88,304.84,262.73,307.67,255.3,312Z"/><path class="cls-101" d="M218.46,260.53l1.37,3c-11.1,6.32-21.43,14-34.2,17.64Q202,270.84,218.46,260.53Z"/><path class="cls-102" d="M315.23,427.32a207.78,207.78,0,0,1,25.34,37l-.43.43c-3.4,1.24-6.06.15-7.79-2.83-5-8.56-11.82-15.83-16.77-24.4-1.68-2.89-3.49-5.72-1.32-9.15A5.14,5.14,0,0,1,315.23,427.32Z"/><path class="cls-103" d="M58.27,96.26a14.62,14.62,0,0,0,1.43-7.8c1.55,4.14,4.16,6.69,8.61,8.38C77,100.16,84.4,106.4,93.5,109.06c.46,2.72-.93,3.08-3.11,2.44C79.76,106.25,69.94,99.3,58.27,96.26Z"/><path class="cls-104" d="M503.58,292.91c-2.61-.14-5.44-2.24-5.44-6.3,0-4.32,3-6.93,7.25-6.89,3.84,0,6.92,2.2,7,6.41C512.38,290.66,509.5,292.82,503.58,292.91Z"/><path class="cls-105" d="M90.39,111.5c1.4-.35,2.66-.88,3.11-2.43a4.14,4.14,0,0,0,.72.38l5,3.36q5.1,6,0,12.09c-5.38-3.32-5.38-3.32-6,.16C87.81,121.49,91.68,116,90.39,111.5Z"/><path class="cls-106" d="M123.54,245.69c-.39,3.61-2.5,6.25-6.53,6.5-4.3.26-7.53-2-7.77-6.34-.21-3.95,2.64-6.6,6.48-6.95C120,238.51,122.75,241,123.54,245.69Z"/><path class="cls-107" d="M245.88,100.94c-.11,1.75-.09,3.51-.36,5.24-.56,3.55-2.92,5.2-6.35,5-3-.2-4.5-2.42-4.52-5.11,0-3.48,2-5.53,5.67-5.62,1.75,0,3.5.07,5.26.11Z"/><path class="cls-108" d="M265.78,463l-3.31-1.71c5.23-10.13,8.07-21.42,15.1-30.66l2.18,1.07c.37.67,1,1.39.91,2.07C279.15,445.21,274,454.86,265.78,463Z"/><path class="cls-109" d="M377.16,569.08c2.85-.14,5.61,2.09,5.61,6.11,0,4.47-3.29,6.66-7.6,6.4-3.86-.23-6.89-2.18-6.59-6.58C368.88,570.83,371.61,568.93,377.16,569.08Z"/><path class="cls-110" d="M141.69,382.29c-1.11,3.79-3,6.57-7.25,6.39-4-.17-5.87-3-5.82-6.43.06-3.94,2.68-6.56,6.81-6.23C139.06,376.31,140.91,379.05,141.69,382.29Z"/><path class="cls-111" d="M157.65,338.31l-1.85-1.79c-3.3-3-1.78-6.06.59-8.37,4-3.93,8.74-6.31,14.61-3.94.4.54.81,1.07,1.22,1.61C167.94,330.65,163.75,335.58,157.65,338.31Z"/><path class="cls-112" d="M489.77,102.8c-.72,4-2.84,6.65-7,6.45s-7.51-2-7.36-6.72c.15-4.45,3.75-5.82,7.37-6.07C487,96.17,488.94,99.14,489.77,102.8Z"/><path class="cls-113" d="M427.5,392.93l4.51-1.52,4.08,33.22c-1.95.06-2.6-1.13-2.81-2.83A191.64,191.64,0,0,0,427.5,392.93Z"/><path class="cls-114" d="M317.52,79.11l9-2.57c7.72-1.06,15.29,1.12,23,1.06.16,1.06.33,2.13.49,3.2h-.61a5.79,5.79,0,0,1-1,1.12C342.88,85.25,322.56,83.39,317.52,79.11Z"/><path class="cls-115" d="M81.23,162.51c.16-1,.32-1.92.47-2.89,8.68,2.43,17.84,3.19,25.93,7.6l-.84,2.07Z"/><path class="cls-116" d="M257.85,475.14l2.09.26c-3.64,8.2-6.13,16.92-10.88,24.63l-2.84-.53Z"/><path class="cls-117" d="M427.65,535.81c-.51.53-1,1.07-1.51,1.61-7-3.4-14.12-6.64-20-11.88l1.38-1.77Z"/><path class="cls-118" d="M183.33,586.35l0-9.93c4.56-4.31,8.21-9.82,14.85-11.44l.45.44c-.58,1.06-.9,2.62-1.79,3.1C189.5,572.4,184.72,578.07,183.33,586.35Z"/><path class="cls-119" d="M94.51,214.94l-1.25-4.7,17.95-10.54c.37.68.73,1.36,1.09,2-2,9.23-10.47,9.87-17.19,12.85Z"/><path class="cls-120" d="M168,519c1.12-1.39,3-2.23,3.17-4.32l18.15,7.76c-.17.62-.35,1.25-.53,1.89C181.57,523.66,175.56,518.29,168,519Z"/><path class="cls-121" d="M64.26,201.16c0-.59.09-1.17.14-1.75,5,.41,8.23,4.27,12.29,6.5,2.39,1.3,4.53,3.06,7.45,2.91l-4.72,4.42C76.89,206.06,68.93,205.67,64.26,201.16Z"/><path class="cls-96" d="M430.4,496.32l.19,3.11-18.1,1.26c-.06-.85-.13-1.7-.19-2.55Z"/><path class="cls-122" d="M256.81,24.35l1.32-1.41a81.79,81.79,0,0,1,4.31,20.93c-.41.06-.83.11-1.24.15C258.21,37.8,257.61,31.05,256.81,24.35Z"/><path class="cls-123" d="M432.38,25.94l2.87,3.34a44,44,0,0,1-8,11.35L424.52,39C427,34.54,432.7,32.06,432.38,25.94Z"/><path class="cls-43" d="M272.23,545.62,272,531.08C276.46,535.85,276.61,540.7,272.23,545.62Z"/><path class="cls-78" d="M269,584.52l-3.46.28c-3.46-3.21-5.89-7.09-9.27-13C263.18,575.55,264.67,581.43,269,584.52Z"/><path class="cls-124" d="M158,19.8c-4.52-2.25-6.63-6.34-8.61-10.53C154,11.43,155.83,15.76,158,19.8Z"/><path class="cls-125" d="M189.16,423.54l3.42,3-6.26,9a11.35,11.35,0,0,1-1.39-.36C184.27,430.56,189.55,428.08,189.16,423.54Z"/><path class="cls-126" d="M323.78,381.13l-1.56-2.32c-.32-4,2.93-5,5.55-6.35,19.09-10,38.49-19.35,57.5-29.47,3.32-1.77,6.6-2.61,10.11-.63l.38.53c-1.77,4.56-6.32,5.67-10,7.57-18.7,9.61-37.53,19-56.34,28.4C327.6,379.76,325.66,380.38,323.78,381.13Z"/><path class="cls-127" d="M421.26,383.64l-1.32,3.11c-8.76,1.14-17.54,2.2-26.28,3.45-4.86.7-9.71.72-13.27,5.65-2.54,3.5-7.18,3.59-10.82.48-2.75-2.37-3.8-5.42-1.45-8.72,3-4.24,7.57-5.29,11.19-2.17,4.16,3.57,8.28,3,12.73,2.39C401.78,386.5,411.52,385,421.26,383.64Z"/><path class="cls-128" d="M402.72,418.43c-4-.85-6.85-3.12-6.79-7.07s2.95-6.5,7-6.43,7.06,2.23,7.18,6.36C410.22,415.94,406.4,417.37,402.72,418.43Z"/><path class="cls-23" d="M447,103.79c.56,3.75,4,4.33,6.55,5.64q23.43,11.77,46.94,23.39a4,4,0,0,1,2.69,3.65,11,11,0,0,1-2.52,7c-9,11.87-17.88,23.89-28.54,34.42-7.21.41-13.21-4.13-20.33-4.73-14-1.18-25.06,3.9-34.38,13.8-1.53,1.63-1,3.83-1.64,5.72a80,80,0,0,0-4,10.18c-2,6.33,2.46,11.59,3,17.51,9.55,21.42,43.95,27.74,59.71,8.24,4.23-5.23,4.34-5.14,9.32-3.87,1.7,1.09,3.35,2.29,5.12,3.25,13.55,7.37,13.51,7.32,4.64,20.33A200,200,0,0,1,477,269.94c-1.82,2-3.82,4.14-3.83,7.2-24.16-12.35-46.77-10.81-67.58,7.41-1.08.94-2.68,1.29-4,1.92-2.19.95-3.86-.13-5.62-1.27-7.65-5-14.06-11.56-21.87-16.32-1.79-1.09-2.42-3.19-2.58-5.3l-.21-1.16c5.6-11.68,10.8-23.47,9.1-36.94a8.25,8.25,0,0,1-3.59-6.36c-.39-8.82-5.55-16-8.32-24-1.61-2.48-2.64-5.06-1.09-8,4-3.72,9.38-4.56,14.12-6.73,11.91-5.43,24.39-9.48,36.05-15.43a12.1,12.1,0,0,1,7.16-.87c1.19.14,2.72-.44,2.33-2s-1.87-1.28-3.06-.82c-1.85.71-3.05,2.48-5,3.13C404.82,170.52,390.78,177,376.1,182a26.14,26.14,0,0,0-7.91,4.29c-3.18,1.18-5.3-.43-7.05-2.77-4.49-6-9.46-11.48-16.22-15.17a8.26,8.26,0,0,1-4.69-6.44c-.16-2.24,1.32-3.73,2.47-5.37,7.26-10.33,16.37-19.25,22.95-30.12a8.11,8.11,0,0,1,6-4.29c11,4.69,22,9.24,34.36,7.82C423.89,127.86,438.14,120,447,103.79Z"/><path class="cls-23" d="M395.38,342.36q-30.4,15.36-60.81,30.7c-4.06,2-8.23,3.84-12.35,5.75-7-7.82-16-11.8-26.2-13.39-3.89-5.58-1.32-11.9-2.07-17.84.05-3.75-.13-7.51.19-11.26,1.55-6.47,1.29-13.06,1.35-19.63,0-3.25-.45-6.69,2.6-9.09l24.84-4.31c9.86,5.33,15.7,14.87,23.51,22.35,2.24,1.44,1.33,6.58,4.86,5.55,2.71-.79.32-2.56-1.21-3.21a8.31,8.31,0,0,1-3.69-2.45c-7-8-14.84-15.24-22-23.12,8.14-1.51,14.45-6.89,21.71-10.24a13.82,13.82,0,0,1,8.93-.13c12.67,4.09,25.71,7,38.18,11.76,2.64,8.12,1,16.14-.69,24.13-.3,1.43-1.4,2.69-.16,4.13Q393.89,337.21,395.38,342.36Z"/><path class="cls-23" d="M255.3,312c3-4.29,4.1-8.69.71-13.33,12.8,4.07,25.61,8.07,39.12,9.06,2.28,6.41.59,13.05,1.11,19.55.33,6.05-1.17,12-.84,18.06-2.2,6.56,1.47,13.81-2.4,20.17L282.46,367Q267.9,339.94,255.3,312Z"/><path class="cls-129" d="M399.64,288.84l-1.13,3.67c.93,5.36.55,10-6.15,11.18-15.13-3.74-30.31-7.3-44.75-13.32,10.12-5.46,16.09-14.8,22.33-23.88C381.94,271.17,391.49,279.07,399.64,288.84Z"/><path class="cls-130" d="M347.61,290.37c15.22,3.42,30.09,8.07,44.94,12.8a1.26,1.26,0,0,1-.24,1.66c-9.8-.94-18.88-4.63-28.24-7.28-6-1.7-12-3.58-17.94-5.38Z"/><path class="cls-131" d="M399.64,288.84a239.23,239.23,0,0,0-29.7-22.35l1.54-2.91,30.07,22.89Z"/><path class="cls-132" d="M294.87,327.65q.13-10,.25-20l3-.09c-.48,9.75.59,19.58-1.61,29.24C294.11,334.09,296.59,330.51,294.87,327.65Z"/><path class="cls-133" d="M427.73,99.12c2,8.37-.62,11.9-9.53,12.06-10.62.18-21.25,0-31.87.06-4.49,0-8.72-1.26-10.93-5.17s.9-7,3-10c8.25-12.49,16.68-24.9,14-41.12-.89-5.44,1.81-7.39,7-6.78a14.22,14.22,0,0,0,3.8,0c7.27-1.07,10.64,1.86,9.37,9.23C409.68,74.21,420.72,85.92,427.73,99.12Z"/><path class="cls-23" d="M193,164.48c18.33-8,36.57-16.23,56-21.39a3.16,3.16,0,0,0,1.4.51c1.66,5.3,5.81,9.07,8.44,13.77a2.59,2.59,0,0,1-.42,4c-7.57,4.81-14.26,11-22.84,14.26-3.45.46-5.82-6.06-9.05-2.4s3.14,6,3.26,9.69c0,8.8-8.2,13.35-10.91,20.76-.94,1.27-1.6,2.79-3.15,3.51C207,206,198.69,204,193,196.52c.23-3.59,2.29-6.51,3.51-9.75,2.54-6.76,2.86-13.45-2.38-19.35C193.72,166.44,193.35,165.46,193,164.48Z"/><path class="cls-23" d="M215.07,250.14c-20.82-4.87-41.16-11.4-61.61-17.55-5.92-1.78-3.06-6.53-3.91-10,4.18-.74,8.37-1.47,12.55-2.22,13.6-2.43,22.87-10.72,29.94-22,9,2.56,18,5.38,24.55,12.66,1.19,9.49-1.86,19,.1,28.51.36,1.76-1.1,3.26-2.61,4.33Z"/><path class="cls-134" d="M95.11,214.59c1.36-5.41,7-5.48,10.46-8.34a70.56,70.56,0,0,1,6.73-4.52c9.56,10.38,20.61,18.27,34.84,20.87.31,6-1.59,8.11-8,5.91C124.57,223.53,109.79,219.19,95.11,214.59Z"/><path class="cls-135" d="M142.5,152.48c4.4-.95,7.43.25,9.66,4.6,2.72,5.3,6.28,10.17,9.47,15.23,2.23,3.55,1.3,6.12-2.41,7.89-3.33,1.59-5.19-.16-6.73-2.83a63.6,63.6,0,0,0-4-6.43c-1.42-1.89-1.85-5.46-5-4.84-3.35.64-4.33,3.92-5.06,6.87-2.55,10.42,6.71,18.32,19,16.31,1.48-.24,3.57-2.11,4.26.73.34,1.41-1.37,1.8-2.62,2.06-3.71.93-7.42,2.38-11.15.06-10.19-3.4-12.71-6.85-13.48-18.42.46-1.89.29-4.62,1.49-5.52,4.77-3.56,4.73-7.88,3.13-12.77C140.78,155.11,141.44,153.56,142.5,152.48Z"/><path class="cls-136" d="M147.91,192.13l11.15-.06c-5.5,2.12-4.38,4.76-.52,7.51,2.23,1.59,5.67,3.2,4.82,6-1,3.2-4.82,1.38-7.38,1.59a58.31,58.31,0,0,1-9.8,0c-2.3-.19-5.82,1.48-6.58-1.64-.63-2.61,2.39-3.88,4.72-5C147.75,198.79,151.21,196.83,147.91,192.13Z"/><path class="cls-137" d="M172.55,184.55a28.65,28.65,0,0,1-22.61,0Z"/><path class="cls-138" d="M213.54,210.25c-5.86-6.32-14.66-7.35-21.49-11.93l.9-1.79L215,205.6C217,207.94,215.94,209.31,213.54,210.25Z"/><path class="cls-139" d="M353.91,240.81c-.41,2.31,1.46,6.75-1.17,6.55-4.24-.33-9.48,2.89-12.12.07-3.36-3.59.28-8.88.71-13.45.13-1.33,2-2.46,2.21-3.83.45-2.41,1.23-5.36-.74-7.21-1.59-1.5-3.83.2-5.69.78-11.09,3.44-22.22,6.78-33.22,10.5-7.92,2.67-15.55,3.64-23.42-.21-3.11-1.52-6.5-2.87-10.2-2.31-11.82,1.79-22.32-2.49-32.6-7.33-4.78-2.26-6.2-6.39-4.28-11.45,1.48-3.8,5-4.81,8.36-5.85q20.3-6.25,40.61-12.42a33,33,0,0,1,20.86.67c9.28,3.23,18.95,5.33,27.82,9.75,3.21,1.6,6.78,1.92,10.34,2,7.28,2.19,10.85,6.94,10.36,14.67-.23,3.62,1.14,6.9,2.6,10.19C355.62,234.83,355.17,237.91,353.91,240.81Z"/><path class="cls-140" d="M262.75,260.17l-1.9-2.75c-3.75-7.48-1.73-15.31-1.38-23,2.07-3.23,4.63-3.42,7.57-1.2,14.76,6.41,29.55,9.94,45.1,2.06,3.36-1.71,7.24-4.1,11.56-2.11,2.34,8.1,2.67,16.17-.23,24.22l-1.41,1.29c-2.15,4.94-6.22,2.81-9.75,2.64-13.33,1.52-26.69.4-40,.74C269,261.89,265.61,262.41,262.75,260.17Z"/><path class="cls-141" d="M267,233.18c-2.23.25-4.79-.74-6.45,1.68-.93,7.5.87,15.11-1,22.56a5.05,5.05,0,0,1-4-4.18c-.84-7.64-5.92-8.22-12.09-8a166.53,166.53,0,0,1-29.43-1.38c-3.36-11.14-1.32-22.36-.54-33.57.49-1.55,1-3.1,1.48-4.65.57-1,1.13-2,1.69-3,8.57-1.76,16.52,2.85,18.6,10.79-1.47,4.15,0,6.63,4.17,8,10.29,3.35,20.53,6.88,30.79,10.34Z"/><path class="cls-142" d="M353.91,240.81c-2.57-8.16-7.18-15.66-6-24.95.45-3.66-5.17-3.13-7.45-5.33a12.74,12.74,0,0,0-5.15-3c-2.82-.89-5.47-2-5.1-5.44.41-3.89,3.27-5.34,6.87-5.69,5.28-.51,10.68-1,15.81-.12,6.51,1.12,12-2.06,18.07-2.68,5.59,9.92,10.95,19.9,9.44,31.91-6.21.48-12,3.27-18.35,3.18-3.5,0-4.65,2.28-4.71,5.42C357.25,236.85,357.22,239.66,353.91,240.81Z"/><path class="cls-141" d="M262.75,260.17l9.09.38c10,1.56,20,.25,30,.74,2.7.13,5.54-.83,8.08.83-14.23,2.86-28.56,1.3-42.86.8C265.61,262.87,264.19,261.13,262.75,260.17Z"/><path class="cls-3" d="M323.47,257.35q.12-12.11.23-24.22C328.27,238.49,328.13,252.53,323.47,257.35Z"/><path class="cls-3" d="M310,262.12q-15.06,0-30.12-.07c-2.75,0-5.56.23-8-1.5l41.17,0c.55.33.74.66.57,1s-.36.51-.54.51Z"/><path class="cls-3" d="M259.58,257.42c.48-7.51-1.11-15.12,1-22.56q.14,11.28.26,22.56h-1.27Z"/><path class="cls-141" d="M313,262l0-1.51c3-.77,6.5,1,9.05-1.88C320.87,264.58,317.11,263.71,313,262Z"/><path class="cls-143" d="M392.31,304.83l.24-1.66,6-10.66c13.8,4.35,28,3,42.09,2.77,6.88-.12,3.94-7.19,6.6-10.39,2.85,7,5.86,13.8-1.7,20.1-3.25,2.72-3.86,6.93-3.47,11.12.23,2.44,1.29,5-.91,7.12q0,.51.12,1c-4.23,2.27-6.78,9-13.37,4.93-11.07.5-22.1,2.17-33.24,1.21-.69-.06-1.49,1.08-2.24,1.67C388.6,323,390.12,313.91,392.31,304.83Z"/><path class="cls-144" d="M427.87,329.18c2.63.38,4.78-1,5.3-3.17,1.59-6.61,4.62-4.68,8.07-1.76,2,2.93,4.51,5.25-1.53,7.32-4.06,1.4-6.77,5.81-9.16,9.71-2.34.49-3.84,2.23-5.57,3.65-2.08,1.71-4.42,2.67-6.73.46-2.65-2.54-1.42-5.17.53-7.29C421.64,335,424.82,332.14,427.87,329.18Z"/><path class="cls-23" d="M354.17,546.6c-4.38-.65-4.85,2.76-5.65,5.6-1.64,5.82-3.07,11.71-4.65,17.55-1.38,5.11-3.93,5.84-7.06,1.41-10.63-15-22.34-29.26-32-44.95-2.2-3.56-1.36-4.81,2.24-5.65,3.94-.92,7.83-2,11.74-3,1.19,0,1.23,1.24,1.85,1.85C327.64,533.54,339.3,542,354.17,546.6Z"/><path class="cls-145" d="M320.62,519.36l-1.85-1.85c-.33-1-.65-1.92-1-2.88-2.59-1.31-3.26-3.66-3.52-6.3a46.88,46.88,0,0,1,3.14-23.09c1.69-4,3.79-8,9.39-7,1.61,4.6,4.65,6.33,9.68,6.18,5.45-.16,10.93.93,16.41,1.32,2.75.2,5.54.09,7.75-2,1.92.35,3.32,1.3,2.78,3.43-.4,1.59-1.93,2.06-3.45,2.29-3.62.55-7.4-.56-10.89,1.07a17,17,0,0,0-1.74,1.44,12.51,12.51,0,0,1,.94-.84c2.53-1.86,5.28-2.13,7.62,0s2.25,5.22.69,7.66c-2.39,3.72-3.32,7.71-4.12,12-1.12,5.91-7.18,8.16-13.53,5.58C334.3,513.82,322.53,515.75,320.62,519.36Z"/><path class="cls-146" d="M339,516.34c7.11-1.28,12-4,10.83-12.76-.57-4.23,5.85-6.1,5.52-11-4-2-5.91.44-7.79,3.38-1.14,1.8-2.33,5.18-4.73,3.65-2.86-1.82-.08-4.47,1.06-6.52a36,36,0,0,1,3.13-4.2c6.53-.56,13.21-2.9,19.34,1.54,4,5.18,8,10.26,15.77,8.47a2.21,2.21,0,0,1,2.64,2.06,1.82,1.82,0,0,1-1.88,1.92c-4.66,0-9.49,1.55-13.9-1.32-1.31-.84-1.83-4.4-4.3-1.53-2.05,2.37-1.8,4.5,1.35,5.87a10.4,10.4,0,0,1,1.82,1.32c0,3.78.15,7.56.07,11.33,0,1.77-.33,3.8-2.78,3.65-2.28-.15-2.6-2.05-2.69-3.88s-.07-3.53-.1-5.3a3.7,3.7,0,0,0-3.78-3.9c-2.79-.21-2,2.16-2.41,3.74-.89,3.85-12.2,9.64-15.77,8.06C338.21,520,338.7,518.09,339,516.34Z"/><path class="cls-147" d="M373.92,513.25c7-6.87,10.12-7.14,17-1.54.69,5.69.18,11.41-6.88,11.71C378,523.67,373.54,520.38,373.92,513.25Z"/><path class="cls-148" d="M142.5,152.48c.75,1.68,5.14.11,3.64,3.08-1.81,3.6-4.69.57-7.09-.14A3.89,3.89,0,0,1,142.5,152.48Z"/><path class="cls-149" d="M441.12,323.23c-4.1-5.26-4.82-11-1.52-16.77,5.15-9.08,7-13.85,7.6-21.57l4.67,0c1,1.67-.89,2.23-1.27,3.37,1.09,8.15,9.8,9.87,13.31,17.65,2.71-5,2.19-11.72,9.1-10,4.52,1.11,5.69,4.44,4.83,8.72-1.12,1.82-.09,2.61,1.51,3.11l.13-.09c2.49,2.44,5.79,5.11,3.78,8.78-1.89,3.45-5.93,2.2-8.85,1.09-4.74-1.81-6.94,1.43-9.61,4C456.64,329.27,449.73,329.79,441.12,323.23Z"/><path class="cls-150" d="M450.6,288.28l1.26-3.37c6.87.48,11.13,4.93,16.68,10.87C460.84,294.29,457.37,287.12,450.6,288.28Z"/><path class="cls-151" d="M479.35,307.73c-2.57,7.5-3.54,7.59-10.08.67,3-1.24,6.61-.79,8.57-3.78C478.34,305.66,478.85,306.7,479.35,307.73Z"/><path class="cls-1" d="M307.08,149.26c4-.15,3.09-3.42,3.38-5.62.93-7.23,1.67-14.49,2.32-21.76.27-3,1.32-5.11,4.41-6.24,12.53-4.58,25-9.32,37.49-14a92.92,92.92,0,0,0,14.82,18.86c.57,1.89-.3,3.38-1.3,4.88-8.52,12.7-18.48,24.27-28.22,36-2.25,1.24-4.5.76-6.56-.29-6.62-3.39-13.87-4.72-20.95-6.61-2.48-.66-5-1.12-5.81-4.1Z"/><path class="cls-23" d="M317.52,79.11l31.86,1.68c-.76,6.56,3.14,12,4.46,18-13.25,4.08-25.46,11-39.86,14.5C314.9,101.53,315.36,90.25,317.52,79.11Z"/><path class="cls-152" d="M340,160.07c9.17-13.68,21.31-25.15,29.51-39.56l2.14,1.58c-8.43,14.17-19.7,26.22-29.48,39.38C340.7,162.13,340.21,161.31,340,160.07Z"/><path class="cls-1" d="M326.81,478.27c-8.16,7.12-9.09,16.76-9.25,26.63-.05,3.24.15,6.48.24,9.73-18.58,5.85-18.41,5.74-29.26-10.18-5.51-8.1-10.27-16.76-17.35-23.79-2.22-2.21-4.39-5-4.19-8.64,2.66-3.44,1.27-6.32-1.22-9.06,2.29-11.49,10.23-20.46,14-31.3,12,4.13,23.5,2.93,34.51-3.28,7.59,11.5,15.16,23,22.84,34.45.61.91,2,1.29,3,1.93C335.28,468.85,330,472.5,326.81,478.27Z"/><path class="cls-153" d="M308.5,383.83c1.4,8.73-2.81,18,2.75,26.38,1.09,1.65.09,3.62-2.31,3.64q-14.88.12-29.75,0c-2.91,0-3.41-1.79-2.45-4.11s1.62-4.86,4-6.29c.86-3.58,2.85-5.25,6.81-5.31,4.45-.06,8.95-.77,12.67-3.67,2.16-3,1.74-6.95,3.78-10,1.25-.93,2.45-2.2,4-.5Z"/><path class="cls-154" d="M308,384l-2.66,1.35c-2.79,3.78-6.94,3.32-10.91,3.62-2.56.2-6.5-.55-6.35,3.32.14,3.7,4,2.9,6.62,3.07,4,.27,8.13-.11,10.75,3.86-2.38,2-5.25,1.37-8,1.43-5.73.14-11.63-.8-16.77,2.81-3-6.36-1.15-13.1-1.56-19.65C288.82,381.25,298.44,380.87,308,384Z"/><path class="cls-155" d="M171.52,56.09c6.77-3.19,13.65-1.94,20.52-.57C185.27,58.36,178.4,57.54,171.52,56.09Z"/><path class="cls-156" d="M181.73,42.8c-3.31-1.26-9.57,1.83-9.53-2.27,0-3.81,6.38-1.71,9.82-1.7s9.66-2,9.57,2C191.52,44.6,185.15,41.52,181.73,42.8Z"/><path class="cls-157" d="M192.32,48.75a30.5,30.5,0,0,1-21.16.06A34.15,34.15,0,0,1,192.32,48.75Z"/><path class="cls-157" d="M171.14,47.39a27.48,27.48,0,0,1,21.18.08A67.47,67.47,0,0,1,171.14,47.39Z"/><path class="cls-158" d="M171.14,47.39l21.18.08a1.51,1.51,0,0,1,0,1.28l-21.16.06A1.22,1.22,0,0,1,171.14,47.39Z"/><path class="cls-159" d="M116.13,47.36c-.81,2,.36,4.63-2.2,6.51C111.61,51.14,112,47,108.71,45s-5.78-2.58-5.78,2.59c0,2.27,0,4.54,0,6.8-.09,11.06-8,16.31-18.11,12-3-1.24-5.38-3.14-5.55-6.54-.19-3.64.44-7.09,4.85-8.15,3.27-.25,6.86-1.47,9.76-.55,6.57,2.09,6.54-1.32,6.37-6-.2-5.54,0-11.09,0-17.82C108,33.22,116.54,36.68,116.13,47.36Z"/><path class="cls-160" d="M560.23,255.9C551.8,260.31,546.29,268,540,274.6c-5.2,5.44-9.1,6.39-13.74,0a13.42,13.42,0,0,0-3.22-3.16c-5.52-3.7-5.51-7.63-.69-11.88,8-7.29,16.14-14.4,23.88-21.93,3.57-3.48,6.48-5.8,10.24-.63a2.71,2.71,0,0,0,.55.52C568.27,246.1,568.27,246.1,560.23,255.9Z"/><path class="cls-161" d="M366.31,490.43c-6.31-2.2-12.86-1.45-19.34-1.54,3.6-3.43,8-1.26,12-1.61,3.22-.28,4.58-.72,1.63-3.53-.09-4.2.25-8.35,4.89-10.11,4-1.51,7.49-.56,10,3.15,2.08,2.49,1.87,5.06.26,7.67C374.14,488.86,368.84,487.45,366.31,490.43Z"/><path class="cls-162" d="M375.76,484.46c-.09-2.56-.17-5.11-.26-7.67,2.45.48,3.28,2.17,3.36,4.44C378.52,483,377.69,484.24,375.76,484.46Z"/><path class="cls-163" d="M204.68,550.09c-3.77-3.88-5.54-8.28-2.88-13.42,2.54-4.9,7.07-5.82,12.12-5.33,7.6,8.15,17.33,4.72,18.23-6.35a83.17,83.17,0,0,1,1.62-8.76c.59-6,3.34-7.74,8.68-4.39,1.13,6.18-4.38,10.68-4.22,16.62-.63,4.12.4,8.67-3.07,12.07-2.21,5.36-.54,9.82,3.23,13.78-.23,11.67-7,16.17-16.52,11.29a8.15,8.15,0,0,1-4.87-7.82c-.06-3.84,1.12-6.88,5.08-8.38,3.76-1.42,8-2.53,8-7.79,0-1.08-.43-2.09-1.74-1.89-4.08.63-7.14,2.06-9.18,6.41C216.22,552.39,210.43,552,204.68,550.09Z"/><path class="cls-164" d="M244.26,76.25c.16-1,0-2.39.53-2.93,5.32-4.95,11.3-9.22,11.69-17.65.09-2,3.57-3.19,5.82-2.31a44.12,44.12,0,0,1,20.4,15.45,11.43,11.43,0,0,0,.56-10.31c-1.53-3.94-5.33-.79-8.1-1.44,3.75-5.05,10.06-5.11,10.91.2,1,6.22,3.49,10.44,8.35,14,1.15.84,1.18,3.2,1.72,4.86-3.81,5.11-10,8.24-10.14,16.3-.07,4.28-5.37,4.9-9.24,3.06-4.14-2-7.67-2.41-12,0-4,2.22-9.31.9-9.36-4-.06-7.23-4-10.1-9.39-12.77C245.2,78.31,244.83,77.09,244.26,76.25Z"/><path class="cls-165" d="M293,365.47c.49-6.63-.54-13.38,1.49-19.9a2.28,2.28,0,0,1,1.44,1.49l.09,18.36Z"/><path class="cls-1" d="M171,324.21c-3.38,1.09-5.63,4.07-9.81,4.32-3.56.21-5.31,4.12-5.39,8-4.63,2.28-9.57,3.07-14.69,3.4-6.89.45-11.48-1.54-11.3-9.4a6.29,6.29,0,0,1-1.48-3.4c-1-10.74-1.06-10.75-11.58-12.51a9.53,9.53,0,0,1-3.66-.94c-2.43-2.11-3.76-4.44-1.5-7.48,4-1.34,8.15-1.33,12.14-4.3s5.31-5.15,3.17-9.41c-.62-1.57-2.07-2.75-2.19-4.58s1-3.27,2.4-4.4l1.34-1.49c5.63-1.32,5.68,3.08,6.48,6.63a9.18,9.18,0,0,0,6.87-6.57c1.64-5.48,4.95-6.2,9.55-3.49,1.48,2.55.38,4.41-1.62,6-.64,2.6-3.77,3.43-3.14,7.57.81,5.34-4,.66-6.18,1.51l1.75,4.89.16-.15c-4.46,3-4.21,7.94-5.12,12.34-.3,1.43,1,3.46,2.44,3.43,7.77-.15,8,5.07,8.19,10.63.07,1.89-.11,4.7,2.32,5.09s3-2.27,3.69-4.11c1.71-4.62,3.17-9.33,5-13.9.68-1.7,2.8-4.72,4-3,2.58,3.61,13.31-3.56,9.63,7.45C171.62,318.84,171.47,321.58,171,324.21Z"/><path class="cls-166" d="M149.73,284.61l1.62-6,4.52,1.27c1.8,1.63,5.43,3.07,3.92,5.62s-4.76,1.15-7.21-.34A8.07,8.07,0,0,0,149.73,284.61Z"/><path class="cls-167" d="M142.16,298.58c3.72-.72,6.71,1.59,10,2.58,1.49.44,2.25,3,.11,3-4-.14-9.2.56-10-5.7Z"/><path class="cls-1" d="M511.44,140.28c7.86,1.09,12.35,7.91,19,11.09-1.15,3.89-4.1,7.26-3.44,11.68l-.24,12.12c-.94,4.53-4.94,5.57-8.38,6.8-10.95,3.91-21.81,8-32.84,11.75a5.46,5.46,0,0,1-4.37-1.8c-1.76-2.8-4.59-4.58-6.76-7s-3.74-4.77-2-8c8.78-12.2,19.54-22.83,28.13-35.21,2.31-3.34,6.37-2.31,9.89-1.7Z"/><path class="cls-23" d="M538,188.94c-4.45,5.77-9,11.49-13.33,17.33-2.48,3.32-5.85,2.47-9,2.22-9.08-.74-18.14-1.66-27.26-.85-7.06-2.77-5.08-8.36-4.27-13.58,13.25-7.2,28-10.55,41.88-16.17a2.68,2.68,0,0,1,2.15.43C530.13,183.06,535.5,184.67,538,188.94Z"/><path class="cls-168" d="M569.74,164.44c2.51,3.37,1.42,7,.7,10.57-2.5,1.1-3.75,9.53-8.11.8-1.22-2.43-9.6-2.42-11.09-.18-4.28,6.45-6.11,1.63-8.81-.66-1.11-3.63-2.22-7.26.71-10.62,1.33-.84,1.73-2.62,3.3-3.22a11,11,0,0,1,6.84-.74,33.81,33.81,0,0,0,3.48.19c.77-.06,1.55-.12,2.32-.22C563.2,160.23,566.47,162.35,569.74,164.44Z"/><path class="cls-96" d="M528.14,178.32l-42,15.37a1.21,1.21,0,0,1-.79-2c13.24-6.87,28.24-9.34,41.36-16.54C528,175.86,528.12,177.07,528.14,178.32Z"/><path class="cls-169" d="M416.83,447.76c1.23-10.46,4.93-14.4,13.11-14,7.4.39,10.84,4.57,11.49,14-3.2,4,.77,5.67,2.61,8.12,1.49,2,5.91,3.6,3.1,6.46-2.37,2.41-4.29-1.44-5.84-3.08-2.84-3-5.44-4.19-9.93-3.07C424.41,457.93,420,453.52,416.83,447.76Z"/><path class="cls-170" d="M29.35,156.93c.09-3.13-.94-6.55,3.62-7.93,1.41-.43,2.41-2.85,1.82-4.62-2.16-6.53,1-7.86,6.38-6.39,3.39.92,5-.25,6.72-2.94,2.11-3.33,4.88-3.31,7,.09,1.69,2.73,3.46,3.48,6.79,2.83,4.17-.82,8.09-.31,6.43,6.08-.57,2.19-.15,5.22,3.46,5.5,2.61,2.79,3.61,5.48-.6,7.7-2.59,1.36-3.5,3.26-2.66,6.16,1.54,5.3-2.54,5.48-5.92,6.06-.6.1-1.86-1-1.93-.93-6.47,8.68-13.76.67-20.61,1-4,.19-6.71-1.4-5.44-6.24C35.51,159.05,33.35,157.22,29.35,156.93Z"/><path class="cls-171" d="M557.13,163.08l-3,0c-2.06-3.41-6.32-2.9-9.08-5.06-.87-1.35-1.17-2.71-.09-4.1,9-6.4,20.91-5,27.71,3.24,1.31,1.59.83,3.26-.76,3.55-2.66.48-2.55,1.88-2.16,3.76-4.22-.15-8.59,1.11-12.57-1.32a17.25,17.25,0,0,1,2.78-2.55A21,21,0,0,0,557.13,163.08Z"/><path class="cls-172" d="M545,153.89l1.48,3c1.65,1.94,2,3.94.21,6l-3.5,1.44c0-.5.22-1.33,0-1.45C534.55,158.05,541.36,156.29,545,153.89Z"/><path class="cls-173" d="M496,56.68c-3.21-1.79-6.84-2.92-9.13-6.08,1.36-4.67,3.19-8.77,9.29-7.8,2.81,1.7,6.41,2.4,7.67,6.05C503.8,56,502.72,57.05,496,56.68Z"/><path class="cls-174" d="M496,56.68c4.71-.52,6.25-4.2,7.83-7.83l4.87,2.79c-.2,1.17.29,1.08,1,.55,2.31,2,5.48,3.41,4.95,7.32-1.29.71-2.57,1.73-4.14,1.13-7-2.72-7.65,1.11-6.76,6.52-5.85.42-3.9-5.4-6.26-7.77Z"/><path class="cls-175" d="M496.12,42.8l-9.29,7.8a7.17,7.17,0,0,1-1.28-.36C487.68,41.12,489.56,39.79,496.12,42.8Z"/><path class="cls-176" d="M509.68,52.19c.26,2.83.43,5.68-3.54,5.86-.82,0-2.38-.66-2.39-1.06-.1-3.25,2-4.74,4.91-5.35A2.21,2.21,0,0,1,509.68,52.19Z"/><path class="cls-177" d="M235.16,540.53c-6.9-6,2.54-7.92,3.07-12.07.44,2.95,2.28,2.65,4.47,2.07,4.16-1.08,8.39-1.9,12.55-3,3.76-1,5.9.18,6.31,4.14-6.25,6-15,4.63-22.26,7.48C237.94,539.69,236.54,540.08,235.16,540.53Z"/><path class="cls-178" d="M483.75,224.75a78,78,0,0,0-6.55,6.15c-17,19.81-51.76,16.68-64.5-5.91-.59-1.05-.57-2.44-.84-3.67-.64-3.25,1.74-3.68,3.95-4a38.21,38.21,0,0,0,8.66-1.79c5.91-.47,12-2.13,15.73,5,1,1.94,16.44,1.84,17.36-.08,3.21-6.7,9.2-4.78,14.43-5.4,4.77.21,10-4.25,14.2,1.51a3.73,3.73,0,0,1-1.63,4.48Z"/><path class="cls-179" d="M485.57,218.13c-4.67-2.75-9.48.88-14.19-.31-2.85-1.46-4-4.49-6.09-6.64-3.41-3.49-5.65-8.46-11.79-8.29-1.44,0-2.38-1.71-2.4-3.43a7.28,7.28,0,0,1,3.34-4.92c8.57-7.36,18.24-7.63,28.45-4.34l2.49,1.51c.26.66.52,1.32.79,2q1.09,7,2.21,13.94c0,.64.05,1.27.08,1.91C489.13,213,491.28,216.85,485.57,218.13Z"/><path class="cls-180" d="M485.57,218.13c2-2.51.54-6.19,2.89-8.59,8.8.56,17.59,1.23,26.4,1.64,4.55.21,5.5,1.71,2.53,5.3-.32.39-.6.81-.88,1.23-11.63,17.12-16.06,17.6-31.95,3.41Z"/><path class="cls-181" d="M568.71,208.93c2.47.15,3.71,1.49,3.57,3.93a3.28,3.28,0,0,1-3.42,3.36c-2.44.08-3.8-1.36-3.94-3.71C564.76,210,566.24,208.86,568.71,208.93Z"/><path class="cls-182" d="M176.82,451c3.8,5.34,4.61,10.43-.91,15.31-4,3.51,1.07,4.19,2.15,6.11.47,1.71,2.52,3.55.64,5.12-1.42,1.19-2.3-.82-3.18-1.82-.51-1.23-1.74-.88-2.66-1.19-3.19-1.74-7-1-10.23-2.6a2.39,2.39,0,0,1-.75-2.92c-5.41-5.34-8.34-11.08-2.94-18.16,2.47-1.19,3.77-2.56.84-4.75-2.07-1.54-3.91-3.64-3.43-6.2s1.89-2.57,2.69.13a7.53,7.53,0,0,0,4.52,3.36c3.25.81,6.47,1.09,9.58-.54,1.26-1,3-1.4,3.73-3,1.5-2.8,2.62-2.08,2.78.52.15,2.44-1.63,4.21-3.42,5.64C173.59,448.05,174.14,449.57,176.82,451Z"/><path class="cls-183" d="M162.26,444.47c-1.92-.89-3.21-2.23-3.22-4.48,6,1.47,11.91,2.11,17.83-.21a3.29,3.29,0,0,1-2.56,3.41C170.52,445.7,166.32,444.44,162.26,444.47Z"/><path class="cls-184" d="M497.47,59.39c6.24-.74,3.62,5.62,6.26,7.77,1.57,2.5,1,6.17,4.3,7.74-1.29,1.86-3,2-4.22.29-1.39-1.92-2.13-3.34-2.75.3-.17,1-.86,1.79-2.11,1.09L493,73.21C495.51,68.92,496.14,64,497.47,59.39Z"/><path class="cls-185" d="M345.86,581.64c-.67,2.63-2.26,4.18-4.91,3.81a3.71,3.71,0,0,1-3.33-4.35c.26-2.76,2.09-4,4.75-3.66C344.67,577.77,345.73,579.45,345.86,581.64Z"/><path class="cls-23" d="M287.56,149.29c-.54-2.43-1.18-4.85-1.6-7.3-2.74-15.86-4.2-11.73,8.77-18.26,5.06-.51,10.61-6.23,14.3-3,3.12,2.75-.31,9.41-.6,14.35-.28,4.72-.89,9.43-1.35,14.14l-.29.35C300.46,154.16,293.19,154,287.56,149.29Z"/><path class="cls-186" d="M130,117.39c-.53,5.76-2.48,9.91-9.51,8.55a4.75,4.75,0,0,0-2.91.47c-2.82,1.5-4.57.45-4.8-3a2.8,2.8,0,0,0,1.68-3c-.67-5.44,2.65-7.59,7.16-8.52S128.53,113.62,130,117.39Z"/><path class="cls-187" d="M112.13,123.41c-1.35,2.21-2.95,3-3.81-.1-.67-2.43-1.75-3.28-4.1-2.74-1.82,1-.18,3.63-2.77,4.62-2.4-4-1.18-8.12-.83-12.25,3.76-.32,1.59,3.53,3.71,4.06,1.41.18,2.54-.11,2.58-1.8s.9-3,2.72-2.8c2.08.24,1.68,2.1,1.81,3.56C111.65,118.44,111.9,120.93,112.13,123.41Z"/><path class="cls-188" d="M104.33,117c-.81-.86-1.5-2.28-2.44-2.46-1.36-.27-1.07,1.33-1.11,2.2-.09,2.17,0,4.34,0,6.52,2.6.26,1.82-2.53,3.47-2.69-.66,2.57.6,7.35-5,4.33V112.81C104.48,109.94,103.73,114.28,104.33,117Z"/><path class="cls-189" d="M173.93,473.59l1.59,2.09c-5.69,3.08-12-.13-18,1.67-2.41.71.12-3.29.12-5.15l4.27-3.23,1.89,1.82C166.74,473.24,171,470.86,173.93,473.59Z"/><path class="cls-190" d="M297.38,22.2c-.69,4.14-2.76,7-7.31,7.13-4.94.12-7.64-2.77-7.54-7.43.1-4.35,3-6.95,7.42-6.82S296.77,17.81,297.38,22.2Z"/><path class="cls-191" d="M205.67,384.19c-4.27-.14-7-2.63-7-7,0-4.79,2.83-7.62,7.73-7.42,4.49.19,7.13,3.06,7,7.43S210.67,384.15,205.67,384.19Z"/><path class="cls-192" d="M196.3,113.24c4.31.45,7.67,2.67,7.61,7.47-.06,5.12-3.44,7.64-8.51,7.55-5.24-.1-8-3-7.69-8.16C188,115.23,191.34,113.23,196.3,113.24Z"/><path class="cls-193" d="M296.11,561c5.55.3,9.34,2.32,9.29,7.59,0,4.7-3.22,7.14-8,7.26s-8-2.41-8.17-7.05S292,561.44,296.11,561Z"/><path class="cls-23" d="M216.1,300.49c-4.9-.6-7.52-3.2-7.16-8,.32-4.4,3-7,7.46-6.66s8.67,1.95,8.52,7.54S220.32,299.76,216.1,300.49Z"/><path class="cls-194" d="M111.59,306.19l3.28,6.36c11.54,6.54,13.91,10.32,12.16,19.44.27,1.45.55,2.89.83,4.37-14.47-5.78-21.79-12.33-21-33.3C109.75,302.13,109.4,306.07,111.59,306.19Z"/><path class="cls-195" d="M127.11,283.5a3.74,3.74,0,0,1-.19,4.57c-1.11,1.86-2.41,3.06-4.57,1.33-1.1-2.12-2.93-4.22-.8-6.62S125.42,282,127.11,283.5Z"/><path class="cls-196" d="M122.35,289.4l4.57-1.33c.75,1.47,1.53,2.95,0,4.41-2.1-.35-2.43,3.86-4.89,2.08S121.13,291.06,122.35,289.4Z"/><path class="cls-197" d="M287.56,149.29l19.23.32c11.51,2.09,22.68,5.25,33.2,10.46.72.47,1.44.94,2.17,1.4,9.51,6.86,18.72,14,25.11,24.11a1.44,1.44,0,0,1,1.28,1.9c.79,2,1.59,4.06,2.38,6.08-3.14,6.13-7.37,8.39-14.7,6.57-5.71-1.42-12-.49-18.08-.46-2.2,0-5-.24-5.59,2.65-.58,2.69,2.13,3,3.81,3.89a9.38,9.38,0,0,1,4.06,4.32c-15-4.43-30-8.8-45-13.33a13.17,13.17,0,0,0-8.14-.21q-26,8.23-52,16.37c-5.06-5.56-13.75-4.88-18.6-10.79,1.08-8.19,8.73-12.73,11.21-20.14,1.82-3.28,3.74-6.47,7.2-8.35,6.59-7.41,15.68-11.31,23.7-16.71l2.28-1.24c4.6-7.22,14.56-9.86,24-6.38Z"/><path class="cls-129" d="M285.13,149.75l-24,6.38c-10.36-14.66-10.36-14.66,5.95-21.25,13.24-5.35,13.24-5.35,16.43,8.27C284,145.35,284.58,147.55,285.13,149.75Z"/><path class="cls-198" d="M127,332c-1-8.4-10-11.78-12.16-19.44,3-.27,5.87-1.5,9-.59,9.86,2.84,10.81,5.69,5.93,18.56Z"/><path class="cls-199" d="M218.46,481.12c-.51,3-2.15,4.34-4.71,4.09a3.75,3.75,0,0,1-3.58-4c.09-2.5,1.6-4.25,4.27-4.18S218.18,479,218.46,481.12Z"/><path class="cls-200" d="M501,137.09l-.51-4.27,3.36-3.21c1.37-.92,2.78-1.72,4.53-1.36l5.39,3.09a7.49,7.49,0,0,1-2.29,8.94h0C507.48,140.78,502.83,143.47,501,137.09Z"/><path class="cls-201" d="M539.43,94.62c-2.28-.36-3.52-1.67-3.33-4s1.6-3.6,3.93-3.42,3.46,1.8,3.36,4C543.29,93.61,541.78,94.64,539.43,94.62Z"/><path class="cls-194" d="M31.73,207.7c2.27.26,3.71,1.49,3.81,3.8.12,2.62-1.23,4.43-3.93,4.36s-4.07-1.89-3.88-4.49C27.89,209.1,29.48,207.94,31.73,207.7Z"/><path class="cls-202" d="M410.67,587.92c-2.46-.35-3.62-1.83-3.48-4.11a3.38,3.38,0,0,1,4-3.48,3.54,3.54,0,0,1,3.48,4C414.47,586.69,412.89,587.81,410.67,587.92Z"/><path class="cls-203" d="M472.53,417.76a3.7,3.7,0,0,1-3.52,4.11c-2.24.27-4.07-.61-4.4-3-.36-2.67.95-4.36,3.74-4.5C470.71,414.23,472.07,415.51,472.53,417.76Z"/><path class="cls-204" d="M337.42,29.37c-.06,2.26-1,3.87-3.5,4a3.48,3.48,0,0,1-4.07-3.49c-.19-2.36,1.06-4,3.44-4.13S337.07,26.92,337.42,29.37Z"/><path class="cls-205" d="M81.51,253.54c2.41.1,3.9,1.28,4.17,3.63s-.83,4.06-3.17,4.42c-2.76.43-4.38-1.09-4.51-3.82C77.88,255.41,79.3,254.06,81.51,253.54Z"/><path class="cls-206" d="M65.23,321.94c2.5.29,4.65,1.35,4.56,4.05-.09,2.95-2.26,4.37-5.14,4.23-2.53-.12-4.5-1.51-4.54-4.1C60.06,323,62.46,322,65.23,321.94Z"/><path class="cls-199" d="M153.61,87.67c-.75,2.86-2.25,4.32-4.9,3.88a3.89,3.89,0,0,1,.62-7.73C152,83.81,153.09,85.66,153.61,87.67Z"/><path class="cls-203" d="M174,548.89c-.36,2.76-2.08,3.89-4.71,3.93-3,0-5.09-1.26-4.94-4.39.14-2.87,2.45-3.59,5-3.44S173.79,546,174,548.89Z"/><path class="cls-207" d="M250.75,300.91c3.15.48,4.61,1.93,4.29,4.67a3.49,3.49,0,0,1-4.28,3.19c-2.09-.31-4.76-.67-4.85-3.7C245.8,301.4,249.26,302.08,250.75,300.91Z"/><path class="cls-208" d="M505.34,283.33c1.93.08,3.6.75,3.62,2.91,0,2.66-2,3.17-4.15,3.12s-3.42-1.14-3.21-3.24S503.33,283.24,505.34,283.33Z"/><path class="cls-209" d="M116.94,248.83c-2.75.19-4.42-.83-4.56-3.16-.11-2,1.47-3.07,3.35-3.27,2.14-.22,4.16.39,4.51,2.79C120.61,247.76,118.56,248.42,116.94,248.83Z"/><path class="cls-210" d="M375.21,572.48c1.86,0,3.78.36,4.1,2.48s-1.3,3.08-3.26,3.28-3.7-.28-4-2.44S373.1,572.59,375.21,572.48Z"/><path class="cls-211" d="M134.5,385.18c-1.44-.35-2.74-1.23-2.53-3a2.82,2.82,0,0,1,3.7-2.67,2.74,2.74,0,0,1,2.31,3.32C137.68,384.43,136.49,385.39,134.5,385.18Z"/><path class="cls-212" d="M486.6,102.91c-.71,2.32-2.07,3.58-4.49,3.32-2-.21-3.42-1.36-3.33-3.41.11-2.6,2.18-3.31,4.32-3.22C485.08,99.69,486.19,101.09,486.6,102.91Z"/><path class="cls-213" d="M379.62,390.69c0,3-1.94,3.93-4.34,4.36-2.66.48-4.62-.6-5-3.22a3.77,3.77,0,0,1,3.7-4.68C376.54,387,379,387.57,379.62,390.69Z"/><path class="cls-166" d="M402.62,414.54c-1.87-.35-3.62-1.17-3.43-3.29.23-2.51,2.27-3.11,4.48-2.92s3.33,1.48,3,3.54S404.63,414.64,402.62,414.54Z"/><path class="cls-214" d="M482.89,190.2c-1.67.54-3.32,1.44-5,1.53-7.64.42-15.73-1-21.46,6.1-6.15-13.89-6.15-13.89-18.82-5.1a133.21,133.21,0,0,1-25.49-.76c3.53-15.84,26.5-24.51,38.84-22.79a54.76,54.76,0,0,1,20.62,6.93c.77-.23,1.21,0,1.25.86C474.94,182.32,481,184.71,482.89,190.2Z"/><path class="cls-215" d="M412.11,192c5.41-5,11.91-2.75,18.05-2.62a74.25,74.25,0,0,1,8.22,1.07c4.87,1.62,6.76,5.24,6.83,10.09-5.28,2.75-9.57,7.23-15.48,8.92-4.38-1.56-9-1.59-13.53-1.86-3.56-.2-6.53-1.16-7.45-5.14C409.26,198.75,409.33,194.93,412.11,192Z"/><path class="cls-216" d="M461.31,154c-2.65-3.11-7.5-2.32-10.79-4.26-2.53-1.49-3.13-6.38-4.28-9.53-1-2.72,1.83-8.94,4.63-10.4,3.06-1.58,7-2,10.52-3.82,2.39-1.21,5.88,2.91,9.66,3.69,3,.61,1.19,6.78,4.72,9.81C477.8,141.17,466,153.66,461.31,154Z"/><path class="cls-217" d="M396,260c-2.57-4.91-8.39-3.34-10-6s-4.22-6.89-3.88-9.7c.38-3.12,1.89-7.6,4.08-9.68s7.19-4.16,9.53-3.78a43.22,43.22,0,0,1,11.44,3.65c2.46,1.21,2.61,6.4,3.91,9.72,1,2.59-2.05,7-3.66,9.61C405.54,256.78,398.62,253.92,396,260Z"/><path class="cls-218" d="M408.75,202.43c6.8,3.56,15.27-.46,21.7,4.78,1.64,5.66-4.1,7.33-6,11.08-3.57,3.56-8.48,1.6-12.57,3A24.89,24.89,0,0,1,408.75,202.43Z"/><path class="cls-219" d="M418.38,163.12c.65-1.59,1-3.43,2-4.74,2.66-3.41,6.27-2.79,9.53-1.24s4,4.36,2.71,7.59c-1.48,3.68-4.89,4.17-8.14,3.84-2.11-.22-4.1-1.64-6.14-2.52A1.84,1.84,0,0,1,418.38,163.12Z"/><path class="cls-220" d="M418.38,163.12c0,1,0,2,0,2.93-13,6.75-26.88,11.24-40.22,17.08-3.21,1.41-6.39,2.9-9.59,4.35l-1.28-1.9c11.22-6.94,24-10.29,35.84-15.91C408.11,167.29,413.29,165.29,418.38,163.12Z"/><path class="cls-221" d="M406.3,196.77c-5.66-.22-12.19,9.46-16.05.23-3.14-7.51,2.24-10.92,9.45-6.92C402,191.36,403.62,194.76,406.3,196.77Z"/><path class="cls-222" d="M472.82,177a4.29,4.29,0,0,1-1.25-.86c5.85-10.74,16.12-18,22.51-28.29,2.24-3.61,6-6.28,6.88-10.73,2.56,4.13,6.8,2.78,10.5,3.2-10.09,0-14.5,7.62-19.35,14.45C486.38,162.79,479.22,169.55,472.82,177Z"/><path class="cls-223" d="M386.39,144.94c4.27.53,6.79,2.58,6.69,6.42a6.29,6.29,0,0,1-6.87,6.47c-3.59-.17-5.88-3.23-5.73-6.82A6.07,6.07,0,0,1,386.39,144.94Z"/><path class="cls-224" d="M445.83,246.5a36.44,36.44,0,0,1-.48,20.31C443.65,260,444.19,253.26,445.83,246.5Z"/><path class="cls-221" d="M346.59,324.54a28.58,28.58,0,0,1,3.77-.48c4.59,0,8.29,1.53,7.74,6.93-.43,4.23-3.61,5.95-7.66,5.54-5-.5-7.08-3.38-6-8.36.17-.74.44-1.46.65-2.18A2,2,0,0,1,346.59,324.54Z"/><path class="cls-225" d="M317.8,319.26c4.56-.05,7.49,3.21,7.75,6.16.3,3.33-3.17,6.24-7,6.51-4.17.29-6.76-2.55-6.7-6.44A6.09,6.09,0,0,1,317.8,319.26Z"/><path class="cls-78" d="M346.59,324.54,345.13,326l-22.2-22.71,1.48-.87C333.79,307.81,339.41,317,346.59,324.54Z"/><path class="cls-226" d="M295.93,347.06l-1.44-1.49q.19-9,.38-17.92c2.08,2.8.64,6.2,1.61,9.19Q296.2,341.94,295.93,347.06Z"/><path class="cls-227" d="M395.71,74.73c0-6.08.16-12.18,0-18.26-.15-4.53,2.59-4.93,5.93-4.63,3,.27,7.95-1.33,7,4C406,71.93,414.71,84,421.79,96.8c4.72,8.53,3.42,10.71-6.24,10.77s-19.32,0-29-.07c-5.79-.06-8.24-2.47-5-8.12,3-5.27,6.12-10.47,9.18-15.7a3.46,3.46,0,0,1,2.64,1.8c.7,3.71-1.51,6.77-2.59,10-1.29,3.9-.65,5.9,3.59,6.07,5.31.22,10.62.24,15.92,0,4.25-.2,5.09-2.14,3.27-6-2.75-5.87-7.25-8.8-13.55-9.32-2.42-.21-5.22.62-6.65-2.37.06-3.37,2.71-4.11,5.15-5.06,3.3-.2,7,.11,6.26-5.1-1.2-4.34.06-9.05-1.94-14.1-3.12,2.85-1.93,6-2.42,8.76C399.85,71.25,400.14,74.69,395.71,74.73Z"/><path class="cls-228" d="M392.25,85.39l-1.54-1.71,5-9c2.07-3.24.83-6.92,1.4-10.35.67-4.1-2.87-11,5.35-10.74s4.32,7,4.94,11.1c.53,3.46.08,7.07.06,10.61A34.69,34.69,0,0,1,400,80.81L393.92,84A1.66,1.66,0,0,1,392.25,85.39Z"/><path class="cls-229" d="M235.12,174.08a11,11,0,0,1-7.2,8.35l-3.07-2.18c-2.19-1.57-5.19-3.16-4.54-6.07.58-2.56,3.05-4.6,5.88-5.33,3-.77,5.31.48,7.06,2.94C233.82,172.59,234.49,173.32,235.12,174.08Z"/><path class="cls-230" d="M208.89,228.65c-.43,3.37-2,6.07-5.91,6.29a6.75,6.75,0,0,1-7.26-6.11c-.24-3.49,3.06-6.48,6.82-6.56C206.08,222.19,208.31,224.81,208.89,228.65Z"/><path class="cls-231" d="M335.8,125.55c4.26.69,6.93,3.16,6.82,7a6.6,6.6,0,0,1-6.72,6.77c-4.27,0-7.11-2.75-6.84-7.25C329.3,128,332.23,126.12,335.8,125.55Z"/><path class="cls-232" d="M305.31,470.1c3.16.27,5.56,2.76,5.41,6.77a6,6,0,0,1-6.51,6c-3.48-.3-7.95-1.47-7.79-6.44C296.58,471.74,300.18,470.34,305.31,470.1Z"/><path class="cls-233" d="M305.48,399.25c-5.8,0-11.63-.22-17.41.15-5.54.36-6-2.66-6-7s.19-7.44,5.88-7.08,11.61.07,17.42.05A45.11,45.11,0,0,1,305.48,399.25Z"/><path class="cls-234" d="M300.54,410c-5.51,1.67-8.86,2.29-13.11-.28C291.71,407.18,295,407.56,300.54,410Z"/><path class="cls-235" d="M546.4,262.18c-5.37,1-5.37,1-4.65,5.45-4-.11-5-6.74-10.38-4.77,1.84,3.28,5.81,4.26,7,7.81-2.47,2.12-4-3.13-6.84-.37-1.84,2.23,5.67,2.72,1.92,5.13-2.23,1.43-3.69-1.9-5.47-3.15-6.16-4.3-6.82-8.46-.23-13.14,7.85-5.59,14.4-12.65,21-19.54,2.25-2.33,4.13-2.82,6.09,0,2.25,3.23,7.53,3.37,8.36,8.28-1.77,1.91-12.05-7.93-5.51,4.36-4.31,0-4.8-5.1-9-4.67.14,3.6,4,4.46,5.11,7.94-6.26-2.88-3.23,3.61-5.63,4.91Q545.54,259.54,546.4,262.18Z"/><path class="cls-236" d="M546.4,262.18a22.73,22.73,0,0,1-6.87-7.69c5.23.76,6.72,3.63,8.65,5.91Z"/><path class="cls-237" d="M234.82,557.07c-.41,3.63-2.12,6.45-5.92,6.62s-7-1.72-7.36-5.82c-.42-4.45,3.08-6.1,6.64-6.57C232.1,550.78,233.94,553.56,234.82,557.07Z"/><path class="cls-238" d="M210.57,534.87c3.73.37,6.12,2.39,6.37,6.11s-2.19,6.25-5.78,6.55c-4.12.35-6.7-2.11-6.78-6.27C204.31,537.36,207.06,535.65,210.57,534.87Z"/><path class="cls-239" d="M259.61,79.34c2.3,1.21,3.19,1.07,2.5-2-.73-3.19-6-7.35-.91-9.43,4.85-2,11.32-3.83,16.34,1,4.47,4.27,2.51,8.56-.47,12.76s-2.85,4-8.24,1.6c-3.35-1.49-7.33-1.58-11-2.3A1.92,1.92,0,0,1,259.61,79.34Z"/><path class="cls-240" d="M281.1,81.48c1.46-3.29,2.51-5.78,3.66-8.22.7-1.46.77-3.8,3.37-3.13a6.2,6.2,0,0,1,4,3.28c1,2-.14,3.46-1.48,4.61C288.27,80,285.49,81.16,281.1,81.48Z"/><path class="cls-241" d="M271.39,63.41c-4,.34-6.89.55-9.79.86-1.49.16-3.09.71-3.58-1.4a6.09,6.09,0,0,1,.78-5,3.25,3.25,0,0,1,4-1.17C266,57.7,268.53,59.58,271.39,63.41Z"/><path class="cls-242" d="M259.61,79.34,257.8,81a3.38,3.38,0,0,1-.73-.1c-3.42-1.31-7.69-2-7.54-6.8a4.41,4.41,0,0,1,4.06-3.86c4.58,0,3.09,4.89,5.08,7.09A7.84,7.84,0,0,1,259.61,79.34Z"/><path class="cls-243" d="M284,88.35c-.12,2.43-.78,4.79-3.66,4.75-2.15,0-5.18-.62-4.91-3.43.25-2.51,2.52-4.14,5.41-4.37C283.14,85.12,284.05,86.14,284,88.35Z"/><path class="cls-244" d="M266.73,90.15A5.43,5.43,0,0,1,261,93c-3.05-.39-3.07-3-3.08-5.23,0-2.46,1.67-2.78,3.66-2.4A6.28,6.28,0,0,1,266.73,90.15Z"/><path class="cls-245" d="M556.8,171.82c-1-2.31-5.35,1.31-4.9-2.71.32-2.8,3.15-2.8,5.42-2.66s4.12,1,3.64,3.61C560.52,172.52,558.52,172,556.8,171.82Z"/><path class="cls-246" d="M546.64,162.91l-.21-6c5.18-1.22,9.22-1,7.69,6.14Z"/><path class="cls-247" d="M428.49,454c-5-1.41-9-3.71-8.52-9.77.51-6.33,5.07-7.69,10.27-7.41s8.56,3.46,8.17,8.87C438,451.41,434,453.76,428.49,454Z"/><path class="cls-248" d="M51.72,163.35a9.74,9.74,0,0,1-10.22-9.78c0-5.54,4.58-10.48,10-10.12,5.77.39,9.26,3.82,10,9.53C62.08,158.18,57.19,163.16,51.72,163.35Z"/><path class="cls-249" d="M557.13,163.08c.22-2.24-1.51-5.36,2-6.23a14.16,14.16,0,0,1,6.51.39c1.4.33,1.33,2,.84,3.17-1,2.36-3.16,2.9-5.55,2.79-1.24-.06-2.47-.06-3.71-.08Z"/><path class="cls-250" d="M424.44,218.29c-2.53-6.14,2.69-8.09,6-11.08,3.38-4.55,8.61-5.79,13.56-7.53,2.51-2.7,5.07-2.67,7.68-.13,7,1.63,13.09,4.62,17.47,10.78,1.74,2.44,2.84,4.58,2.22,7.49-2.14.85-4.26,1.6-6.64.84-1.14-.36-2.88-1.22-3.5.07-4.93,10.4-14.14,3.43-21.13,5.3-.45.12-1.4,0-1.44-.23C436.56,215.14,429,220.61,424.44,218.29Z"/><path class="cls-251" d="M451.69,199.55l-7.68.13c-4.31-1.61-4.74-5.57-5.63-9.26,1.22-6,6.2-9.51,11.52-8.21,7.74,1.89,9.77,6.75,6.52,15.62Z"/><path class="cls-252" d="M159,459.85c.25-1.18.47-3.37.77-3.38,5.41-.23,10.84-.25,16.25-.06.35,0,.62,2.17.92,3.33C170,465.19,165.78,465.22,159,459.85Z"/><path class="cls-253" d="M159,459.85c6,1.83,12,2.18,17.94-.11a5.78,5.78,0,0,1-3.13,4.51,93,93,0,0,1-11.69.1A4.59,4.59,0,0,1,159,459.85Z"/><path class="cls-254" d="M174.18,453.29c-4.78.6-7.88,1-12-.47C166.33,448.83,169.51,449.27,174.18,453.29Z"/><path class="cls-255" d="M173.93,473.59c-2.77,0-5.54,0-8.31,0-2.05,0-2.73-.86-1.85-2.78C167.8,469.43,171.49,469.24,173.93,473.59Z"/><path class="cls-256" d="M162.26,444.47c3.79-2.57,8.05-.73,12.05-1.28C170.7,447.41,166.59,447,162.26,444.47Z"/><path class="cls-257" d="M162.14,464.35c3.88-2.25,7.78-2.07,11.69-.1C170,466.65,166.06,467,162.14,464.35Z"/><path class="cls-258" d="M122.66,114.86c2.58.25,3.75,1.68,3.78,4,0,1.93-.87,3.54-2.89,3.82-2.4.33-3.75-1.11-4-3.42S120.69,115.55,122.66,114.86Z"/><path class="cls-259" d="M469.18,139.62c-.79,5-3.49,8-8.08,7.58-3.9-.37-8.45-2.06-8.42-7,0-5.62,4.76-7.37,9.4-7.55S468.51,135.83,469.18,139.62Z"/><path class="cls-1" d="M405.07,244.13c-1.69,4.83-4.82,7.5-9.53,7.4-4.39-.09-7.05-2.8-6.94-7.3s2.8-7.35,7.1-7.27C400.2,237.05,403.56,239.68,405.07,244.13Z"/><path class="cls-260" d="M383.44,151.14c.35-2,1.42-3.24,3.53-3a3,3,0,0,1,2.91,2.89,3.08,3.08,0,0,1-3.18,3.43C384.65,154.52,383.56,153.21,383.44,151.14Z"/><path class="cls-193" d="M321.34,325.41c.05,1.7-.65,3-2.37,3.27-2,.36-3.57-.48-3.75-2.61a3,3,0,0,1,3.12-3.46C320,322.54,321,323.74,321.34,325.41Z"/><path class="cls-261" d="M392.25,85.39,393.92,84c1.51.07,3,.17,4.54.19,13.21.13,17.07,3,21.64,15.69,1.31,3.61,0,4.63-3.28,4.63-9.61,0-19.22,0-28.82,0-5,0-4.65-2.42-2.8-5.77C387.63,94.31,389.91,89.83,392.25,85.39Z"/><path class="cls-262" d="M400,80.81c-1.09-6.66,2.92-6.4,7.44-5.46.7,2.1,2.14,4.27-.44,6.12S402.24,82.28,400,80.81Z"/><path class="cls-166" d="M227.57,177.82c-1.64-.39-2.75-1.3-2.62-3a2.49,2.49,0,0,1,2.94-2.52,2.66,2.66,0,0,1,2.61,2.94C230.4,176.93,229.23,177.73,227.57,177.82Z"/><path class="cls-263" d="M205.54,228.47a2.84,2.84,0,0,1-2.8,2.88,2.45,2.45,0,0,1-2.71-2.1,2.58,2.58,0,0,1,2.25-3.31C204,225.68,205.09,226.72,205.54,228.47Z"/><path class="cls-264" d="M338.49,132.76c-.45,1.76-1.57,2.75-3.28,2.43a2.58,2.58,0,0,1-2.16-3.34,2.42,2.42,0,0,1,2.75-2A2.7,2.7,0,0,1,338.49,132.76Z"/><path class="cls-265" d="M307.37,476.15c-.24,1.91-1.11,3.18-2.79,3.26a2.91,2.91,0,1,1-.05-5.81A2.73,2.73,0,0,1,307.37,476.15Z"/><path class="cls-266" d="M277.17,74.94c-.45,4.11-3.07,5.44-6.83,5.36s-5.75-2-5.69-5.57,2.34-5.49,5.93-5.37S277,70.7,277.17,74.94Z"/><path class="cls-267" d="M430.51,439.9l6,5.11c-2.88,1.89-4,7-7.36,6.55-2.52-.32-4.56-4.28-6.81-6.61Z"/><path class="cls-268" d="M458.26,218.4c-6.86,2.66-12.57,3.85-18.83,0,3.23-3.38,9.25-7.07.28-10.45a2.13,2.13,0,0,1-.77-1.83,1.72,1.72,0,0,1,2.3-1.35c4.75,1.89,9.38,1.16,14.1-.08a3,3,0,0,1,2.39,1.27c.68,1-.23,1.71-1.11,2.32C449.24,213.45,449.25,213.64,458.26,218.4Z"/><path class="cls-269" d="M398.17,87.93c2.27.37,3.71,1.66,3.61,4a3.34,3.34,0,0,1-3.37,3.44,3.69,3.69,0,0,1-4.12-3.6C394.13,89.43,395.88,88.28,398.17,87.93Z"/></g></g></svg>